<svg xmlns="http://www.w3.org/2000/svg" viewBox="0 0 1000.1 269.967">
  <defs>
    <style>
      .cls-1 {
        fill: #f4c89a;
      }

      .cls-2 {
        fill: #deb084;
      }

      .cls-3 {
        fill: #13120d;
      }

      .cls-4, .cls-5 {
        fill-rule: evenodd;
      }

      .cls-5 {
        fill: #fdf7fa;
      }

      .cls-6 {
        fill: #eeeeee;
      }

      .cls-7 {
        fill: #eeeeee;
      }

      .cls-8 {
        fill: #dcdadb;
      }
    </style>
  </defs>
  <g id="LOGO-TekoEstudio" transform="translate(1657 1442)">
    <g id="tekoestudio-COLOR" transform="translate(-1656.9 -1441.996)">
      <path id="Path_1" data-name="Path 1" class="cls-1" d="M149.7,151.3l-4,32.5a2.463,2.463,0,0,1-2.3,2.2l-13,1a3.077,3.077,0,0,1-1.9-.6,2.5,2.5,0,0,1-.8-1.8V174a2.438,2.438,0,0,1,1.2-2.1l4.6-2.7.6-31.5-7.1-6.5a2.732,2.732,0,0,1-.8-1.9l1-36.2L105.6,81.8c-.2-.1-.3-.2-.5-.3-.7-.6-7.1-5.7-14.4,2.2l-.2.2-9.8,8.7a2.452,2.452,0,0,1-1.6.6h-.8a2.342,2.342,0,0,1-1.7-.7l-9.3-8.7c-7.7-8.2-14.2-2.6-14.5-2.3a2.186,2.186,0,0,1-.5.3L30.8,93l1,36.2a2.732,2.732,0,0,1-.8,1.9l-7.1,6.5.6,31.5,4.7,2.7a2.351,2.351,0,0,1,1.2,2.1v10.6a2.5,2.5,0,0,1-.8,1.8,2.837,2.837,0,0,1-1.7.7h-.2l-13-1a2.551,2.551,0,0,1-2.3-2.2l-4-32.9a3.535,3.535,0,0,0-1.6-1.1h0a8.1,8.1,0,0,0-.9,2.3A45.024,45.024,0,0,0,5,162.3c0,13.7,3.6,34.1,8.9,42.5,1.8,2.8,3.5,3.9,4.5,3.8h.1c-1.2-5.8-1.7-10.3-1.7-10.3a2.489,2.489,0,0,1,2.2-2.8,2.561,2.561,0,0,1,2.8,2.2A128.534,128.534,0,0,0,24.2,211c1.7,7.2,4.5,15.7,8.1,19.8,4.8,5.8,11.7,16.7,20.9,24.3-3.7-15.4-5.5-40.1-5.5-40.1l27.4,3.9-17.9,5.5c-2.3,7.9,2.6,31.1,2.6,31.1l13.6.9,1.4-13.5,9.6-.5,1.3,13.2,13.2-2c6.5-5.3,7.2-33.9,7.2-33.9-8.1,1.4-18.8-1.4-18.8-1.4,9.8,1.4,26.4-5.5,26.4-5.5,2.2,9.7-1,26.8-3.6,38.3,7-7.1,12.5-15.5,16.5-20.3,3.6-4.1,6.4-12.5,8.1-19.8s2.4-13.3,2.5-13.3a2.465,2.465,0,0,1,2.7-2.2,2.561,2.561,0,0,1,2.2,2.8s-.6,4.5-1.8,10.3h.1c1,.1,2.7-1,4.5-3.8a47.181,47.181,0,0,0,4.7-11.7,123.331,123.331,0,0,0,4.2-30.8c.1-6.4-1-11.7-1.9-12.5A4.363,4.363,0,0,0,149.7,151.3Z"/>
      <path id="Path_2" data-name="Path 2" class="cls-1" d="M32.1,238.8a3.039,3.039,0,0,1-.5-.7C31.8,238.3,31.9,238.6,32.1,238.8Z"/>
      <path id="Path_3" data-name="Path 3" class="cls-1" d="M35.7,243.6c-1.1-1.5-2.2-2.9-3.1-4.2C33.6,240.7,34.6,242.2,35.7,243.6Z"/>
      <path id="Path_4" data-name="Path 4" class="cls-1" d="M126.8,238.4c-2,2.6-4.3,5.8-6.9,9.1C122.5,244.2,124.8,241.1,126.8,238.4Z"/>
      <path id="Path_5" data-name="Path 5" class="cls-1" d="M30.6,236.7c-.1-.1-.1-.2-.2-.3C30.4,236.6,30.5,236.7,30.6,236.7Z"/>
      <path id="Path_6" data-name="Path 6" class="cls-1" d="M155.8,146.9a11.246,11.246,0,0,1,1.7,4A12.086,12.086,0,0,0,155.8,146.9Z"/>
      <path id="Path_7" data-name="Path 7" class="cls-1" d="M38.9,247.6c-1.1-1.3-2.1-2.6-3.1-3.9C36.8,245,37.8,246.3,38.9,247.6Z"/>
      <path id="Path_8" data-name="Path 8" class="cls-1" d="M29.6,235.5l-.3-.3Q29.45,235.2,29.6,235.5Z"/>
      <path id="Path_9" data-name="Path 9" class="cls-1" d="M42.4,251.8c-1.2-1.3-2.3-2.7-3.4-4C40.1,249.1,41.2,250.5,42.4,251.8Z"/>
      <path id="Path_10" data-name="Path 10" class="cls-1" d="M118.3,249.4c-1.5,1.8-3.1,3.5-4.8,5.3C115.2,252.9,116.8,251.2,118.3,249.4Z"/>
      <path id="Path_11" data-name="Path 11" class="cls-1" d="M113.3,254.8c-.5.5-1,1-1.6,1.5C112.3,255.8,112.8,255.3,113.3,254.8Z"/>
      <path id="Path_12" data-name="Path 12" class="cls-1" d="M48.4,257.7c-.7-.6-1.3-1.2-2-1.8C47,256.5,47.7,257.1,48.4,257.7Z"/>
      <path id="Path_13" data-name="Path 13" class="cls-1" d="M44.3,253.8c-.6-.6-1.2-1.2-1.8-1.9C43.1,252.6,43.7,253.2,44.3,253.8Z"/>
      <path id="Path_14" data-name="Path 14" class="cls-1" d="M119.8,247.6a20.946,20.946,0,0,1-1.4,1.7C118.9,248.7,119.3,248.1,119.8,247.6Z"/>
      <path id="Path_15" data-name="Path 15" class="cls-1" d="M155.8,146.9a5.028,5.028,0,0,0-3.9-2.2A5.028,5.028,0,0,1,155.8,146.9Z"/>
      <path id="Path_16" data-name="Path 16" class="cls-1" d="M46.4,255.9c-.7-.6-1.3-1.3-2-2Z"/>
      <path id="Path_17" data-name="Path 17" class="cls-1" d="M7.7,144.9a3.749,3.749,0,0,0-1.1-.1,3.75,3.75,0,0,1,1.1.1Z"/>
      <path id="Path_18" data-name="Path 18" class="cls-1" d="M53.2,261.5c.7.5,1.5,1,2.3,1.5h0C54.7,262.5,53.9,262,53.2,261.5Z"/>
      <path id="Path_19" data-name="Path 19" class="cls-1" d="M107.8,259.7c1.3-1,2.5-2.1,3.7-3.2-1.2,1.1-2.4,2.2-3.7,3.2Z"/>
      <path id="Path_20" data-name="Path 20" class="cls-1" d="M130.2,234c4.3-5.1,7-13.3,8.8-20.5h0C137.2,220.7,134.6,228.9,130.2,234Z"/>
      <path id="Path_21" data-name="Path 21" class="cls-1" d="M142.9,213.1c2.5-.9,4.4-3.1,6-5.6,4.3-7,7.3-18.8,8.7-30.3-1.4,11.4-4.4,23.3-8.7,30.3C147.3,210,145.4,212.1,142.9,213.1Z"/>
      <path id="Path_22" data-name="Path 22" class="cls-1" d="M129.4,235a1.381,1.381,0,0,0-.3.4A1.381,1.381,0,0,1,129.4,235Z"/>
      <path id="Path_23" data-name="Path 23" class="cls-1" d="M52.9,261.3c-1.5-1.1-2.9-2.2-4.3-3.4C50,259.1,51.4,260.2,52.9,261.3Z"/>
      <path id="Path_24" data-name="Path 24" class="cls-1" d="M128.5,236.1a1.756,1.756,0,0,1-.4.5C128.3,236.4,128.4,236.2,128.5,236.1Z"/>
      <path id="Path_25" data-name="Path 25" class="cls-1" d="M127.6,237.3c-.1.2-.3.3-.4.5A2.181,2.181,0,0,0,127.6,237.3Z"/>
      <path id="Path_26" data-name="Path 26" class="cls-2" d="M155.2,190.4c-.2,1-.5,2-.8,3C154.7,192.4,155,191.4,155.2,190.4Z"/>
      <path id="Path_27" data-name="Path 27" class="cls-2" d="M139,213.5c-1.8,7.2-4.4,15.4-8.8,20.5C134.6,228.9,137.2,220.7,139,213.5Z"/>
      <path id="Path_28" data-name="Path 28" class="cls-2" d="M150.3,204.9a21.481,21.481,0,0,1-1.4,2.6A21.484,21.484,0,0,0,150.3,204.9Z"/>
      <path id="Path_29" data-name="Path 29" class="cls-2" d="M158.5,165.7c0-1.1.1-2.3.1-3.4a46.275,46.275,0,0,0-1.1-11.4,46.275,46.275,0,0,1,1.1,11.4C158.6,163.4,158.6,164.5,158.5,165.7Z"/>
      <path id="Path_30" data-name="Path 30" class="cls-2" d="M151.7,201.9a14.723,14.723,0,0,1-1,2.2C151,203.4,151.4,202.6,151.7,201.9Z"/>
      <path id="Path_31" data-name="Path 31" class="cls-2" d="M154.2,194.5c-.3,1-.6,1.9-.9,2.9C153.6,196.4,153.9,195.4,154.2,194.5Z"/>
      <path id="Path_32" data-name="Path 32" class="cls-2" d="M153.1,197.9c-.4,1.1-.7,2.2-1.1,3.2A30.053,30.053,0,0,0,153.1,197.9Z"/>
      <path id="Path_33" data-name="Path 33" class="cls-2" d="M148.9,207.5c-.4.6-.7,1.1-1.1,1.6A15.255,15.255,0,0,0,148.9,207.5Z"/>
      <path id="Path_34" data-name="Path 34" class="cls-2" d="M144.9,212a13.263,13.263,0,0,0,2.7-2.6A21.674,21.674,0,0,1,144.9,212Z"/>
      <path id="Path_35" data-name="Path 35" class="cls-2" d="M107.8,259.7c1.3-1,2.5-2.1,3.7-3.2-1.2,1.1-2.4,2.2-3.7,3.2Z"/>
      <path id="Path_36" data-name="Path 36" class="cls-2" d="M150.8,144.9c-.1,0-.2.1-.4.1h0C150.6,145,150.7,144.9,150.8,144.9Z"/>
      <path id="Path_37" data-name="Path 37" class="cls-2" d="M141.9,213.4a8.486,8.486,0,0,0,2.6-1.1,7.972,7.972,0,0,1-1.6.8C142.6,213.2,142.3,213.3,141.9,213.4Z"/>
      <path id="Path_38" data-name="Path 38" class="cls-2" d="M129.1,235.3h0a1.381,1.381,0,0,0,.3-.4h0A1.381,1.381,0,0,1,129.1,235.3Z"/>
      <path id="Path_39" data-name="Path 39" class="cls-2" d="M157.1,181.1q.6-3.75.9-7.5c-.1,1.2-.2,2.4-.4,3.6C157.4,178.5,157.3,179.8,157.1,181.1Z"/>
      <path id="Path_40" data-name="Path 40" class="cls-2" d="M118.3,249.4c-.7.9-1.5,1.7-2.2,2.6C116.8,251.1,117.5,250.3,118.3,249.4Z"/>
      <path id="Path_41" data-name="Path 41" class="cls-2" d="M113.2,254.9a18.479,18.479,0,0,0-1.4,1.4Z"/>
      <path id="Path_42" data-name="Path 42" class="cls-2" d="M115.9,252.1c-.8.9-1.6,1.7-2.4,2.5C114.3,253.8,115.1,252.9,115.9,252.1Z"/>
      <path id="Path_43" data-name="Path 43" class="cls-2" d="M151.9,144.8a4.1,4.1,0,0,0-1.1.1,4.1,4.1,0,0,1,1.1-.1Z"/>
      <path id="Path_44" data-name="Path 44" class="cls-2" d="M119.7,247.6c-.4.5-.8,1-1.3,1.6A18.258,18.258,0,0,0,119.7,247.6Z"/>
      <path id="Path_45" data-name="Path 45" class="cls-2" d="M158.5,166.2c0,.9-.1,1.9-.1,2.9C158.4,168.1,158.5,167.2,158.5,166.2Z"/>
      <path id="Path_46" data-name="Path 46" class="cls-2" d="M125.1,240.7c-1,1.4-2.1,2.8-3.2,4.3C123,243.5,124.1,242.1,125.1,240.7Z"/>
      <path id="Path_47" data-name="Path 47" class="cls-2" d="M121.7,245.1c-.6.8-1.2,1.6-1.9,2.4C120.5,246.7,121.1,245.9,121.7,245.1Z"/>
      <path id="Path_48" data-name="Path 48" class="cls-2" d="M158.3,169.9c-.1.9-.1,1.9-.2,2.8C158.2,171.8,158.2,170.9,158.3,169.9Z"/>
      <path id="Path_49" data-name="Path 49" class="cls-2" d="M156.2,186c-.2,1.3-.5,2.5-.8,3.8C155.7,188.6,155.9,187.3,156.2,186Z"/>
      <path id="Path_50" data-name="Path 50" class="cls-2" d="M156.9,182.1c-.2,1-.3,2-.5,3.1C156.6,184.1,156.7,183.1,156.9,182.1Z"/>
      <path id="Path_51" data-name="Path 51" class="cls-3" d="M148.9,207.5c.5-.8.9-1.7,1.4-2.6.1-.3.3-.5.4-.8.3-.7.7-1.5,1-2.2.1-.3.2-.5.3-.8a30.055,30.055,0,0,0,1.1-3.2c.1-.2.1-.4.2-.6.3-.9.6-1.9.9-2.9.1-.3.2-.7.3-1,.3-1,.5-2,.8-3,.1-.2.1-.4.2-.6.3-1.2.5-2.5.8-3.8.1-.3.1-.6.2-.9a28.68,28.68,0,0,0,.5-3.1c.1-.3.1-.7.2-1,.2-1.3.4-2.6.5-3.9.2-1.2.3-2.4.4-3.6a2.2,2.2,0,0,1,.1-.8,26.35,26.35,0,0,0,.2-2.8,2.768,2.768,0,0,1,.1-.9,28.1,28.1,0,0,0,.1-2.9v-.6c0-1.1.1-2.3.1-3.4a46.275,46.275,0,0,0-1.1-11.4,13.055,13.055,0,0,0-1.7-4,5.028,5.028,0,0,0-3.9-2.2h0a3.749,3.749,0,0,0-1.1.1c-.1,0-.2.1-.4.1h0l4.2-34.4v-.4c0-.9-1.1-23-15.7-41.8-6.3-8.2-15.2-14.6-26.4-19-4-14.2-8.7-26.5-8.8-26.6a2.431,2.431,0,0,0-2.7-1.5,2.376,2.376,0,0,0-2,2.4C99,28.9,96.9,34.9,95,39.6,90.1,10.5,72.7.7,72,.3a2.4,2.4,0,0,0-3.2.8,2.475,2.475,0,0,0,.5,3.3c6.3,5,6.3,14.7,5.3,21.9-3.9-5.9-10.6-8.9-11-9.1a2.487,2.487,0,0,0-3.3,3.3C64,28.1,54.5,42.4,50,47.8,36.7,52.2,26.4,59.2,19.2,68.4,4.7,87.3,3.6,109.3,3.5,110.3v.4l4.2,34.2a3.749,3.749,0,0,0-1.1-.1A4.92,4.92,0,0,0,2.7,147C.4,150.4,0,155.6-.1,162.4a124.626,124.626,0,0,0,4.4,32.1,57.312,57.312,0,0,0,3.8,10.2c.5,1,1,1.9,1.5,2.8,2.1,3.3,4.8,6,8.7,6.1a4.868,4.868,0,0,0,1.2-.1h.1c1.8,7.2,4.5,15.4,8.8,20.5a10.627,10.627,0,0,1,.9,1.1l.3.3c.3.3.5.7.8,1,.1.1.1.2.2.3a16.964,16.964,0,0,1,1,1.4c.2.2.3.5.5.7s.3.4.5.6c1,1.3,2,2.7,3.1,4.2l.1.1c1,1.3,2,2.6,3.1,3.9,0,.1.1.1.1.2,1.1,1.3,2.2,2.7,3.4,4l.1.1c.6.6,1.2,1.3,1.8,1.9l.1.1c.6.7,1.3,1.3,2,2h0c.6.6,1.3,1.2,2,1.8l.2.2c1.4,1.2,2.8,2.3,4.3,3.4.1.1.2.1.3.2.7.5,1.5,1,2.3,1.5h0a16.1,16.1,0,0,0,1.2,2.3s23.5,12,50.3-2.5c0,0,.3-1.1.9-3.1h0c1.3-1,2.5-2.1,3.7-3.2h0c.1-.1.2-.1.2-.2h0a18.479,18.479,0,0,0,1.4-1.4l.1-.1.2-.2h0c.8-.8,1.6-1.7,2.4-2.5l.1-.1c.8-.9,1.5-1.7,2.2-2.6h0c0-.1.1-.1.1-.2h0c.4-.5.9-1,1.3-1.6l.1-.1a.1.1,0,0,1,.1-.1h0c.6-.8,1.3-1.6,1.9-2.4l.1-.1c1.2-1.5,2.2-2.9,3.2-4.3.6-.8,1.2-1.6,1.7-2.3.1-.2.3-.4.4-.6s.3-.3.4-.5c.2-.3.4-.5.6-.8a1.756,1.756,0,0,1,.4-.5,4.348,4.348,0,0,1,.6-.7h0a1.381,1.381,0,0,0,.3-.4h0a7.006,7.006,0,0,0,.8-1c4.3-5.1,7-13.3,8.8-20.5h0a4.868,4.868,0,0,0,1.2.1,9.853,9.853,0,0,0,1.7-.2c.3-.1.7-.2,1-.3a7.972,7.972,0,0,0,1.6-.8.52.52,0,0,1,.4-.2,13.263,13.263,0,0,0,2.7-2.6l.3-.3C148.2,208.6,148.6,208,148.9,207.5Zm-4.2-2.7c-1.8,2.8-3.5,3.9-4.5,3.8h-.1c1.2-5.8,1.7-10.3,1.8-10.3a2.469,2.469,0,1,0-4.9-.6,115.749,115.749,0,0,1-2.5,13.3c-1.7,7.2-4.5,15.7-8.1,19.8-4,4.8-9.5,13.2-16.5,20.3,2.2-9.3,4.6-22.3,4.3-32a39.116,39.116,0,0,0-.7-6.3s-16.7,6.9-26.4,5.5c0,0,10.6,2.8,18.8,1.4a162.947,162.947,0,0,1-1.5,17.6c-1,7-2.8,14-5.7,16.4l-13.2,2v-.1l-1.2-13.1-9.6.5-1.4,13.5-13.6-.9s-4.9-23.3-2.6-31.1L75,219l-27.4-3.9s1.8,24.6,5.5,40.1c-9.2-7.6-16.1-18.5-20.9-24.3-3.5-4.1-6.4-12.5-8.1-19.8a133.857,133.857,0,0,1-2.4-13.3,2.518,2.518,0,0,0-5,.6s.5,4.5,1.7,10.3h-.1c-1,0-2.7-1-4.5-3.8-5.4-8.4-9-28.8-8.9-42.5a45.024,45.024,0,0,1,.9-10.2,9.713,9.713,0,0,1,.9-2.3h0A3.093,3.093,0,0,1,8.3,151l4,32.9a2.463,2.463,0,0,0,2.3,2.2l13,1h.2a2.342,2.342,0,0,0,1.7-.7,2.5,2.5,0,0,0,.8-1.8V174a2.438,2.438,0,0,0-1.2-2.1l-4.7-2.7-.6-31.5,7.1-6.5a2.732,2.732,0,0,0,.8-1.9l-1-36.2L52.3,81.8c.2-.1.3-.2.5-.3.3-.2,6.9-5.9,14.5,2.3l9.3,8.7a2.837,2.837,0,0,0,1.7.7h.8a2.271,2.271,0,0,0,1.6-.6l9.8-8.7.2-.2a15.164,15.164,0,0,1,4.2-3.3,9.589,9.589,0,0,1,10.3,1,2.186,2.186,0,0,0,.5.3L127.4,93l-1,36.2a2.732,2.732,0,0,0,.8,1.9l7.1,6.5-.6,31.5-4.6,2.7a2.351,2.351,0,0,0-1.2,2.1v10.6a2.5,2.5,0,0,0,.8,1.8,2.211,2.211,0,0,0,1.9.6l13-1a2.551,2.551,0,0,0,2.3-2.2l4-32.5a5.369,5.369,0,0,1,2-1.6c.9.9,2,6.1,1.9,12.5a123.331,123.331,0,0,1-4.2,30.8C148.1,197.9,146.5,202.1,144.7,204.8Z"/>
      <g id="Group_2" data-name="Group 2">
        <path id="Path_52" data-name="Path 52" class="cls-4" d="M71.5,163.8l-7.2-14.2-28.4-5.8c-7.5,3.4-4.1,9.7-4.1,9.7l16.3,1.9a10.692,10.692,0,1,0,10.5,1.3l3.3.4Z"/>
        <path id="Path_53" data-name="Path 53" class="cls-4" d="M123.7,150.5l-29-.9-7.2,14.2,9.5-6.7,2.5.4a10.72,10.72,0,0,0-3.3,7.7,10.6,10.6,0,1,0,21.2,0,11.029,11.029,0,0,0-1.3-5.1l9.4,1.5C125.4,161.6,131.1,154,123.7,150.5Z"/>
      </g>
      <path id="Path_54" data-name="Path 54" class="cls-5" d="M60.2,162.3a4.951,4.951,0,0,1-5,5,5.015,5.015,0,0,1-5-5,5,5,0,0,1,10,0"/>
      <path id="Path_55" data-name="Path 55" class="cls-5" d="M114.6,162.3a4.951,4.951,0,0,1-5,5,5.015,5.015,0,0,1-5-5,4.93,4.93,0,0,1,5-4.9,4.994,4.994,0,0,1,5,4.9"/>
      <path id="Path_56" data-name="Path 56" class="cls-6" d="M210.7,188.6q-10.5,0-16.2-5.7t-5.7-17.4V111.3H177.2V95.1H190l7.5-21.6h15V95.1h17.4v16.1H212.5V159c0,4.5.9,7.8,2.5,9.9,1.7,2.1,4.3,3.2,7.9,3.2a38.517,38.517,0,0,0,8-1.2v14.8a65.632,65.632,0,0,1-20.2,2.9"/>
      <path id="Path_57" data-name="Path 57" class="cls-6" d="M274.1,188.8c-13.8,0-24.5-4.1-31.9-12.3s-11.1-20.1-11.1-35.8c0-15.2,3.8-26.9,11.3-35,7.5-8.2,18.2-12.2,32-12.2,13.2,0,23.3,4.4,30.3,13.1,7,8.8,10.5,21.6,10.5,38.5v.7h-59c0,9,1.7,15.7,5,20.3s8,6.8,14.2,6.8c8.4,0,13.8-3.7,16-11l22.5,2c-6.6,16.5-19.8,24.9-39.8,24.9m0-80.4c-5.6,0-9.9,2-13,5.9-3,3.9-4.6,9.4-4.8,16.4H292c-.5-7.4-2.2-13-5.4-16.7-3-3.7-7.2-5.6-12.5-5.6"/>
      <path id="Path_58" data-name="Path 58" class="cls-6" d="M383.3,187.1l-24.6-41.7-10.2,7.2v34.5H324.6V60.9h23.9v72.3l32.8-38.1h25.6L374.6,131l34.8,56.1Z"/>
      <path id="Path_59" data-name="Path 59" class="cls-6" d="M500.1,141c0,14.9-4.1,26.6-12.4,35.1s-19.7,12.7-34.3,12.7c-14.3,0-25.6-4.2-33.7-12.8-8.2-8.5-12.2-20.2-12.2-35s4.1-26.4,12.2-34.9c8.2-8.5,19.6-12.7,34.3-12.7,15,0,26.5,4.1,34.4,12.3,7.7,8.2,11.7,19.9,11.7,35.3m-25,0c0-10.9-1.8-18.9-5.4-23.8s-8.8-7.4-15.6-7.4c-14.5,0-21.8,10.4-21.8,31.2,0,10.3,1.8,18.1,5.3,23.4,3.5,5.4,8.7,8,15.3,8,14.8,0,22.2-10.4,22.2-31.4"/>
      <path id="Path_60" data-name="Path 60" class="cls-7" d="M521.6,144.3c0,10.5,2.2,18.7,6.5,24.4,4.4,5.7,10.7,8.6,19.1,8.6,6.6,0,11.9-1.3,15.9-4a19.766,19.766,0,0,0,8.1-10.1l13.4,3.8c-5.5,14.5-18,21.8-37.5,21.8-13.6,0-24-4-31.1-12.2-7.1-8.1-10.7-20.1-10.7-36.1,0-15.2,3.6-26.8,10.7-34.9s17.3-12.2,30.5-12.2q40.5,0,40.5,48.9v2Zm49.8-11.7c-.8-9.7-3.3-16.8-7.4-21.2-4.1-4.5-9.9-6.7-17.6-6.7-7.4,0-13.3,2.5-17.6,7.4-4.3,5-6.7,11.8-7,20.4h49.6Z"/>
      <path id="Path_61" data-name="Path 61" class="cls-7" d="M667,161.7c0,8.7-3.3,15.4-9.8,20.1s-15.7,7.1-27.5,7.1c-11.4,0-20.3-1.9-26.5-5.7s-10.2-9.6-12.1-17.6l13.5-2.6a16.692,16.692,0,0,0,8.1,10.8c4.1,2.3,9.7,3.4,17,3.4,7.8,0,13.4-1.2,17-3.6s5.4-5.9,5.4-10.7a11.534,11.534,0,0,0-3.7-8.8c-2.5-2.3-6.5-4.1-12.1-5.6l-11-2.9c-8.8-2.3-15-4.5-18.7-6.7a26.719,26.719,0,0,1-8.7-7.9,19.949,19.949,0,0,1-3.1-11.5q0-12.6,9-19.2t26.1-6.6c10.1,0,18.2,1.8,24.2,5.4s9.8,9.3,11.3,17.2L651.6,118a13.9,13.9,0,0,0-6.8-9.4c-3.7-2.2-8.7-3.3-14.9-3.3-6.9,0-12,1.1-15.3,3.1-3.3,2.1-4.9,5.3-4.9,9.5a10.485,10.485,0,0,0,2,6.5,16.561,16.561,0,0,0,6,4.3c2.7,1.2,8.3,2.8,16.8,4.9,8.1,2,13.9,3.9,17.5,5.7a29.954,29.954,0,0,1,8.5,5.7,21.081,21.081,0,0,1,4.8,7.3,22.871,22.871,0,0,1,1.7,9.4"/>
      <path id="Path_62" data-name="Path 62" class="cls-7" d="M711.7,186.4a57.325,57.325,0,0,1-15.5,2c-12.2,0-18.4-6.9-18.4-20.8V106.2H667.2V95.1h11.2l4.5-20.6h10.2V95.1h17v11.1h-17v58.1c0,4.4.7,7.5,2.2,9.3,1.4,1.8,4,2.7,7.5,2.7a46.74,46.74,0,0,0,8.8-1.2v11.3Z"/>
      <path id="Path_63" data-name="Path 63" class="cls-7" d="M731,95.1v58.3q0,9.15,1.8,14.1a12.742,12.742,0,0,0,5.7,7.2c2.6,1.5,6.4,2.2,11.5,2.2,7.4,0,13.2-2.5,17.4-7.6,4.2-5,6.4-12,6.4-21V95.1H789v72.3c0,10.7.2,17.3.5,19.6H775a18.393,18.393,0,0,1-.2-2.3c-.1-1.2-.1-2.7-.2-4.3s-.2-4.7-.3-9.1H774c-3.5,6.3-7.6,10.8-12.2,13.5-4.6,2.6-10.4,4-17.2,4-10.1,0-17.5-2.5-22.1-7.5-4.7-5-7-13.3-7-24.9V95.1Z"/>
      <path id="Path_64" data-name="Path 64" class="cls-7" d="M862.2,172.3c-2.8,5.9-6.6,10.1-11.3,12.7s-10.5,3.8-17.4,3.8c-11.6,0-20.2-3.9-25.6-11.7-5.5-7.8-8.2-19.7-8.2-35.5q0-48.15,33.8-48.1c7,0,12.8,1.3,17.4,3.8a27.3,27.3,0,0,1,11.2,12.2h.2l-.2-10.3V60.9h15.3V168.1c0,9.6.2,15.9.5,19H863.3a54,54,0,0,1-.6-6.3c-.2-3.3-.3-6.1-.3-8.5ZM815.8,141q0,19.35,5.1,27.6c3.4,5.6,8.9,8.3,16.6,8.3q13.05,0,18.9-9c3.9-6,5.9-15.3,5.9-28,0-12.2-2-21.1-5.9-26.8s-10.1-8.5-18.7-8.5c-7.7,0-13.3,2.8-16.7,8.5-3.5,5.8-5.2,15.1-5.2,27.9"/>
      <path id="Path_65" data-name="Path 65" class="cls-7" d="M892.2,60.9h15.3V75.5H892.2Zm0,34.2h15.3v92H892.2Z"/>
      <path id="Path_66" data-name="Path 66" class="cls-7" d="M1000,141c0,16.1-3.5,28.1-10.6,36s-17.4,11.8-30.9,11.8c-13.4,0-23.6-4.1-30.4-12.3-6.9-8.2-10.3-20-10.3-35.5q0-47.55,41.2-47.6c14.1,0,24.4,3.9,31,11.6,6.7,7.7,10,19.7,10,36m-16.1,0c0-12.7-1.9-21.9-5.7-27.7s-10.1-8.6-19-8.6c-9,0-15.4,2.9-19.4,8.8s-6,15-6,27.5c0,12.1,2,21.2,5.9,27.3s10.1,9.1,18.6,9.1c9.2,0,15.7-2.9,19.7-8.8s5.9-15.1,5.9-27.6"/>
      <path id="Path_67" data-name="Path 67" class="cls-8" d="M215.9,201.5c.4-.1.8-.1,1.3-.2.5,0,.9-.1,1.3-.1a6.151,6.151,0,0,1,1.3.1,5.067,5.067,0,0,1,1.3.2v38a38.313,38.313,0,0,1-4.5,1,31.6,31.6,0,0,1-5.5.4,19.041,19.041,0,0,1-5.4-.7,13.685,13.685,0,0,1-4.5-2.3,10.762,10.762,0,0,1-3-4.2,17.085,17.085,0,0,1-1.1-6.4,16.432,16.432,0,0,1,1-6,14.191,14.191,0,0,1,2.8-4.6,11.92,11.92,0,0,1,4.3-3,14.338,14.338,0,0,1,5.6-1.1c.9,0,1.8.1,2.8.2a15.767,15.767,0,0,1,2.5.5V201.5Zm0,16.3a8.648,8.648,0,0,0-2.3-.6,21.114,21.114,0,0,0-2.6-.2,9.213,9.213,0,0,0-3.8.8,6.964,6.964,0,0,0-2.6,2.2,8.355,8.355,0,0,0-1.5,3.3,17.045,17.045,0,0,0-.5,4.1q0,4.95,2.4,7.2a9.094,9.094,0,0,0,6.3,2.2,19.289,19.289,0,0,0,2.5-.1,11.212,11.212,0,0,0,2.1-.4V217.8Z"/>
      <path id="Path_68" data-name="Path 68" class="cls-8" d="M237.8,217.3h-3.4c-.1-.3-.1-.6-.2-1,0-.4-.1-.7-.1-1.1a4.1,4.1,0,0,1,.1-1.1,2.959,2.959,0,0,1,.2-1H243v27.1c-.4.1-.8.1-1.3.2-.5,0-.9.1-1.3.1a4.868,4.868,0,0,1-1.2-.1,5.067,5.067,0,0,1-1.3-.2V217.3Zm-1.1-10.1a6.149,6.149,0,0,1-.1-1.4v-2.6c0-.5.1-.9.1-1.3.5-.1,1-.1,1.5-.2.5,0,1-.1,1.4-.1a7.6,7.6,0,0,1,1.4.1,5.9,5.9,0,0,1,1.4.2,5.283,5.283,0,0,1,.1,1.3v2.6c0,.5-.1,1-.1,1.4-.4.1-.9.1-1.4.2-.5,0-1,.1-1.3.1a7.084,7.084,0,0,1-1.4-.1c-.7-.1-1.2-.1-1.6-.2"/>
      <path id="Path_69" data-name="Path 69" class="cls-8" d="M258.4,235.4a15.831,15.831,0,0,0,3.1.9,19.529,19.529,0,0,0,3.4.3,8.524,8.524,0,0,0,2.3-.3,5.449,5.449,0,0,0,1.9-.8,5.346,5.346,0,0,0,1.3-1.3,3.371,3.371,0,0,0,.5-1.7,2.861,2.861,0,0,0-.4-1.7,4.145,4.145,0,0,0-1.1-1.2,7.143,7.143,0,0,0-1.5-.8c-.6-.2-1.2-.4-1.9-.7l-1.9-.7a11.731,11.731,0,0,1-4.9-2.9,6.089,6.089,0,0,1-1.5-4.3,7.034,7.034,0,0,1,2.6-5.7q2.55-2.1,7.5-2.1a17.519,17.519,0,0,1,4,.4c1.3.3,2.5.6,3.5.9a15.529,15.529,0,0,1-.4,2.1,11.764,11.764,0,0,1-.7,2,15.791,15.791,0,0,0-2.8-.8,12.941,12.941,0,0,0-3.5-.4,7.824,7.824,0,0,0-3.5.7,2.508,2.508,0,0,0-1.5,2.4,2.41,2.41,0,0,0,.4,1.5,5.241,5.241,0,0,0,1,1.1,5.3,5.3,0,0,0,1.5.8,18.885,18.885,0,0,0,1.8.6l2.3.8a24.428,24.428,0,0,1,2.4,1,6.7,6.7,0,0,1,3.3,3.6,8.532,8.532,0,0,1,.5,3,8.171,8.171,0,0,1-3,6.4,11.546,11.546,0,0,1-3.5,1.8,16.314,16.314,0,0,1-4.5.6,27.615,27.615,0,0,1-4.4-.3,17.908,17.908,0,0,1-3.5-.9,15.529,15.529,0,0,1,.4-2.1,14.278,14.278,0,0,1,.8-2.2"/>
      <path id="Path_70" data-name="Path 70" class="cls-8" d="M291.8,228c.1,3,.8,5.1,2.3,6.5s3.6,2.1,6.5,2.1a18.661,18.661,0,0,0,7.1-1.3,8.391,8.391,0,0,1,.7,1.9,8.917,8.917,0,0,1,.3,2.2,15.233,15.233,0,0,1-3.8,1.1,31.529,31.529,0,0,1-4.6.4,16.655,16.655,0,0,1-6.3-1,12.508,12.508,0,0,1-4.4-2.9,11.245,11.245,0,0,1-2.5-4.4,20,20,0,0,1,0-11.2,11.475,11.475,0,0,1,2.4-4.5,12.3,12.3,0,0,1,4-3.1,12.622,12.622,0,0,1,5.7-1.1,10.728,10.728,0,0,1,4.9,1,9.187,9.187,0,0,1,3.5,2.6,11.838,11.838,0,0,1,2.2,4,15.912,15.912,0,0,1,.7,5,9.15,9.15,0,0,1-.1,1.6c0,.6-.1,1-.1,1.4H291.8Zm13.4-3.9a8.628,8.628,0,0,0-.4-2.8,8.989,8.989,0,0,0-1.2-2.4,5.264,5.264,0,0,0-2-1.6,6.088,6.088,0,0,0-2.8-.6,6.18,6.18,0,0,0-4.9,2,10.24,10.24,0,0,0-2.1,5.4h13.4Z"/>
      <path id="Path_71" data-name="Path 71" class="cls-8" d="M325.3,213.2c.4-.1.8-.1,1.1-.2h2.2a5.161,5.161,0,0,1,1.1.2q.15.75.3,2.1c.1.9.2,1.6.2,2.2a9.609,9.609,0,0,1,3.2-3.4,8.989,8.989,0,0,1,2.4-1.2,9.427,9.427,0,0,1,3-.5q4.65,0,6.9,2.7c1.5,1.8,2.2,4.4,2.2,7.9v17.2c-.4.1-.8.1-1.3.2-.5,0-.9.1-1.3.1a6.15,6.15,0,0,1-1.3-.1,5.067,5.067,0,0,1-1.3-.2V224.4a9.97,9.97,0,0,0-1.2-5.5,4.1,4.1,0,0,0-3.7-1.8,8.675,8.675,0,0,0-2.8.5,6.342,6.342,0,0,0-2.3,1.6,7.315,7.315,0,0,0-1.6,2.9,13.3,13.3,0,0,0-.6,4.2V240c-.4.1-.8.1-1.3.2-.5,0-.9.1-1.3.1a6.15,6.15,0,0,1-1.3-.1,5.067,5.067,0,0,1-1.3-.2V213.2Zm2-8.2a6.251,6.251,0,0,1,2.1-1.8,5.83,5.83,0,0,1,3-.8,5.223,5.223,0,0,1,2.1.4,10.837,10.837,0,0,1,1.9.8c.6.3,1.2.5,1.9.8a6.465,6.465,0,0,0,2,.4,4.671,4.671,0,0,0,1.7-.3,10.762,10.762,0,0,0,1.9-1.3,9.874,9.874,0,0,1,1.7,3.2,6.844,6.844,0,0,1-2.1,1.7,6.04,6.04,0,0,1-3,.7,5.223,5.223,0,0,1-2.1-.4,16.672,16.672,0,0,1-2-.8c-.6-.3-1.3-.5-1.9-.8a6.456,6.456,0,0,0-1.9-.4,3.425,3.425,0,0,0-1.8.4,12.885,12.885,0,0,0-1.8,1.3,13.028,13.028,0,0,1-1-1.5,3.741,3.741,0,0,1-.7-1.6"/>
      <path id="Path_72" data-name="Path 72" class="cls-8" d="M378.4,240.9a13.146,13.146,0,0,1-5.5-1.1,10.83,10.83,0,0,1-4-3,12.018,12.018,0,0,1-2.3-4.5,20,20,0,0,1,0-11.2,13.685,13.685,0,0,1,2.3-4.5,10.83,10.83,0,0,1,4-3,13.486,13.486,0,0,1,5.5-1.1,13.146,13.146,0,0,1,5.5,1.1,10.83,10.83,0,0,1,4,3,13.889,13.889,0,0,1,2.4,4.5,20,20,0,0,1,0,11.2,12.214,12.214,0,0,1-2.4,4.5,10.83,10.83,0,0,1-4,3,12.819,12.819,0,0,1-5.5,1.1m0-4.2a6.209,6.209,0,0,0,5.4-2.6c1.2-1.8,1.7-4.2,1.7-7.3a13.583,13.583,0,0,0-1.7-7.3,6.908,6.908,0,0,0-10.8,0,16.523,16.523,0,0,0,0,14.6,5.984,5.984,0,0,0,5.4,2.6"/>
      <path id="Path_73" data-name="Path 73" class="cls-8" d="M439.3,210.9a4.606,4.606,0,0,0,1.5,3.6c1,.9,2.6,1.3,4.8,1.3h11.5l4.9-6.7h.4v6.7h6.9a12.481,12.481,0,0,1,.2,2.1,3.749,3.749,0,0,1-.1,1.1,4.253,4.253,0,0,1-.2,1.1h-6.9v7.8a14.847,14.847,0,0,1-1.1,5.7,9.665,9.665,0,0,1-3.2,4,13.212,13.212,0,0,1-4.9,2.4,24.886,24.886,0,0,1-6.4.8,23.516,23.516,0,0,1-5.4-.6,14.612,14.612,0,0,1-4.6-2,9.48,9.48,0,0,1-3.1-3.5,10.521,10.521,0,0,1-1.2-5.2,12.7,12.7,0,0,1,.5-3.4,10.906,10.906,0,0,1,1.4-3.1,8.81,8.81,0,0,1,2.2-2.5,9.482,9.482,0,0,1,2.7-1.7,9.907,9.907,0,0,1-3.8-2.9,7.873,7.873,0,0,1-1.6-5,8.158,8.158,0,0,1,.9-4,9.551,9.551,0,0,1,2.4-2.9,10.009,10.009,0,0,1,3.6-1.7,16.115,16.115,0,0,1,4.4-.6c.9,0,1.9.1,3.1.2a15.935,15.935,0,0,1,3.5.8,6.649,6.649,0,0,1-.3,2.1,14.17,14.17,0,0,1-.8,1.8,13.777,13.777,0,0,0-2.6-.6,21.051,21.051,0,0,0-2.5-.2,7.947,7.947,0,0,0-2.9.5,6.657,6.657,0,0,0-2,1.2,4.188,4.188,0,0,0-1.1,1.6,11.021,11.021,0,0,0-.2,1.8m7.9,25.3a14.142,14.142,0,0,0,5-.8,7.1,7.1,0,0,0,3.1-2.1,6.915,6.915,0,0,0,1.5-3.1,14.723,14.723,0,0,0,.4-3.6v-6.3H446.5a7.391,7.391,0,0,0-3.4.7,8.061,8.061,0,0,0-2.6,1.8,9.186,9.186,0,0,0-1.6,2.7,8.662,8.662,0,0,0-.6,3.2,7.086,7.086,0,0,0,2.3,5.6,10.378,10.378,0,0,0,6.6,1.9"/>
      <path id="Path_74" data-name="Path 74" class="cls-8" d="M522.3,201.5c.4-.1.8-.1,1.3-.2.5,0,.9-.1,1.3-.1a6.15,6.15,0,0,1,1.3.1,5.067,5.067,0,0,1,1.3.2v38a38.312,38.312,0,0,1-4.5,1,31.6,31.6,0,0,1-5.5.4,19.041,19.041,0,0,1-5.4-.7,13.685,13.685,0,0,1-4.5-2.3,10.763,10.763,0,0,1-3-4.2,17.085,17.085,0,0,1-1.1-6.4,16.431,16.431,0,0,1,1-6,14.191,14.191,0,0,1,2.8-4.6,11.921,11.921,0,0,1,4.3-3,14.338,14.338,0,0,1,5.6-1.1c.9,0,1.8.1,2.8.2a15.767,15.767,0,0,1,2.5.5V201.5Zm0,16.3a8.648,8.648,0,0,0-2.3-.6,21.114,21.114,0,0,0-2.6-.2,9.213,9.213,0,0,0-3.8.8A6.964,6.964,0,0,0,511,220a8.355,8.355,0,0,0-1.5,3.3,17.046,17.046,0,0,0-.5,4.1q0,4.95,2.4,7.2a9.094,9.094,0,0,0,6.3,2.2,19.289,19.289,0,0,0,2.5-.1,11.212,11.212,0,0,0,2.1-.4Z"/>
      <path id="Path_75" data-name="Path 75" class="cls-8" d="M549.6,228c.1,3,.8,5.1,2.3,6.5s3.6,2.1,6.5,2.1a18.661,18.661,0,0,0,7.1-1.3,8.391,8.391,0,0,1,.7,1.9,8.917,8.917,0,0,1,.3,2.2,15.233,15.233,0,0,1-3.8,1.1,31.529,31.529,0,0,1-4.6.4,16.655,16.655,0,0,1-6.3-1,12.509,12.509,0,0,1-4.4-2.9,11.245,11.245,0,0,1-2.5-4.4,20,20,0,0,1,0-11.2,11.475,11.475,0,0,1,2.4-4.5,12.3,12.3,0,0,1,4-3.1,12.622,12.622,0,0,1,5.7-1.1,10.728,10.728,0,0,1,4.9,1,9.187,9.187,0,0,1,3.5,2.6,10.347,10.347,0,0,1,2.2,4,15.912,15.912,0,0,1,.7,5,9.153,9.153,0,0,1-.1,1.6c0,.6-.1,1-.1,1.4H549.6Zm13.4-3.9a8.626,8.626,0,0,0-.4-2.8,8.989,8.989,0,0,0-1.2-2.4,5.264,5.264,0,0,0-2-1.6,6.088,6.088,0,0,0-2.8-.6,6.18,6.18,0,0,0-4.9,2,10.24,10.24,0,0,0-2.1,5.4H563Z"/>
      <path id="Path_76" data-name="Path 76" class="cls-8" d="M585,235.4a14.048,14.048,0,0,0,3.1.9,19.529,19.529,0,0,0,3.4.3,8.524,8.524,0,0,0,2.3-.3,5.449,5.449,0,0,0,1.9-.8,5.346,5.346,0,0,0,1.3-1.3,3.371,3.371,0,0,0,.5-1.7,2.861,2.861,0,0,0-.4-1.7,4.145,4.145,0,0,0-1.1-1.2,7.144,7.144,0,0,0-1.5-.8c-.6-.2-1.2-.4-1.9-.7l-1.9-.7a11.731,11.731,0,0,1-4.9-2.9,6.089,6.089,0,0,1-1.5-4.3,7.034,7.034,0,0,1,2.6-5.7q2.55-2.1,7.5-2.1a17.518,17.518,0,0,1,4,.4c1.3.3,2.5.6,3.5.9a15.52,15.52,0,0,1-.4,2.1,11.767,11.767,0,0,1-.7,2,15.791,15.791,0,0,0-2.8-.8,12.94,12.94,0,0,0-3.5-.4,8.116,8.116,0,0,0-3.5.7,2.508,2.508,0,0,0-1.5,2.4,2.41,2.41,0,0,0,.4,1.5,3.46,3.46,0,0,0,1,1.1,5.3,5.3,0,0,0,1.5.8,18.882,18.882,0,0,0,1.8.6l2.3.8a24.434,24.434,0,0,1,2.4,1,6.7,6.7,0,0,1,3.3,3.6,8.532,8.532,0,0,1,.5,3,8.171,8.171,0,0,1-3,6.4,11.545,11.545,0,0,1-3.5,1.8,16.315,16.315,0,0,1-4.5.6,27.616,27.616,0,0,1-4.4-.3,17.907,17.907,0,0,1-3.5-.9,15.52,15.52,0,0,1,.4-2.1c.3-.8.5-1.5.8-2.2"/>
      <path id="Path_77" data-name="Path 77" class="cls-8" d="M636.1,222.4c0-2.1-.5-3.5-1.6-4.3a7.632,7.632,0,0,0-4.6-1.2,19.827,19.827,0,0,0-3.5.3,28.062,28.062,0,0,0-3.1.8,8.164,8.164,0,0,1-1-4.2,21.476,21.476,0,0,1,4-.9,29.663,29.663,0,0,1,4.2-.3c3.5,0,6.2.8,8,2.4s2.7,4.2,2.7,7.7v17q-1.8.45-4.5.9a32.722,32.722,0,0,1-5.4.4,22.584,22.584,0,0,1-4.7-.5,8.637,8.637,0,0,1-3.5-1.5,6.435,6.435,0,0,1-2.2-2.7,9.49,9.49,0,0,1-.8-4,8.719,8.719,0,0,1,.9-4,9.888,9.888,0,0,1,2.5-2.9,11.9,11.9,0,0,1,3.6-1.7,15.4,15.4,0,0,1,4.3-.6,23.52,23.52,0,0,1,2.8.1c.7.1,1.3.1,1.8.2v-1Zm0,5.1c-.5-.1-1.2-.1-2-.2a16.232,16.232,0,0,0-2.1-.1,8.8,8.8,0,0,0-5,1.2,4.261,4.261,0,0,0-1.7,3.7,4.4,4.4,0,0,0,.6,2.5,4.66,4.66,0,0,0,1.4,1.4,6.033,6.033,0,0,0,1.9.6,14.083,14.083,0,0,0,2,.1,21.749,21.749,0,0,0,2.5-.1,13.661,13.661,0,0,0,2.3-.4v-8.7Z"/>
      <path id="Path_78" data-name="Path 78" class="cls-8" d="M687.2,213.2c.4-.1.8-.1,1.1-.2h2.3a4.253,4.253,0,0,1,1.1.2q.15.75.3,2.1c.1.9.2,1.6.2,2.2a10.639,10.639,0,0,1,2.9-3.1,7.686,7.686,0,0,1,4.7-1.3h.9a1.949,1.949,0,0,1,.8.1c.1.3.1.7.2,1v1.1a5.7,5.7,0,0,1-.1,1.3,5.065,5.065,0,0,1-.2,1.3,2.768,2.768,0,0,0-.9-.1h-.7a7.664,7.664,0,0,0-2.7.4,5.505,5.505,0,0,0-2.3,1.4,7.178,7.178,0,0,0-1.6,2.7,14.413,14.413,0,0,0-.6,4.5v13.5c-.4.1-.8.1-1.3.2-.5,0-.9.1-1.3.1a6.15,6.15,0,0,1-1.3-.1,5.067,5.067,0,0,1-1.3-.2V213.2Z"/>
      <path id="Path_79" data-name="Path 79" class="cls-8" d="M660.1,213.2c.4-.1.8-.1,1.1-.2h2.3a4.253,4.253,0,0,1,1.1.2q.15.75.3,2.1c.1.9.2,1.6.2,2.2a10.639,10.639,0,0,1,2.9-3.1,7.686,7.686,0,0,1,4.7-1.3h.9a1.949,1.949,0,0,1,.8.1c.1.3.1.7.2,1v1.1a5.7,5.7,0,0,1-.1,1.3,5.065,5.065,0,0,1-.2,1.3,2.768,2.768,0,0,0-.9-.1h-.7a7.664,7.664,0,0,0-2.7.4,5.505,5.505,0,0,0-2.3,1.4,7.178,7.178,0,0,0-1.6,2.7,14.413,14.413,0,0,0-.6,4.5v13.5c-.4.1-.8.1-1.3.2-.5,0-.9.1-1.3.1a6.15,6.15,0,0,1-1.3-.1,5.067,5.067,0,0,1-1.3-.2V213.2Z"/>
      <path id="Path_80" data-name="Path 80" class="cls-8" d="M728.7,240.9a13.146,13.146,0,0,1-5.5-1.1,10.83,10.83,0,0,1-4-3,13.89,13.89,0,0,1-2.4-4.5,20,20,0,0,1,0-11.2,12.214,12.214,0,0,1,2.4-4.5,10.83,10.83,0,0,1,4-3,13.486,13.486,0,0,1,5.5-1.1,13.146,13.146,0,0,1,5.5,1.1,10.83,10.83,0,0,1,4,3,13.89,13.89,0,0,1,2.4,4.5,20,20,0,0,1,0,11.2,12.214,12.214,0,0,1-2.4,4.5,10.83,10.83,0,0,1-4,3,13.146,13.146,0,0,1-5.5,1.1m0-4.2a6.21,6.21,0,0,0,5.4-2.6c1.2-1.8,1.7-4.2,1.7-7.3a13.582,13.582,0,0,0-1.7-7.3,6.908,6.908,0,0,0-10.8,0,16.523,16.523,0,0,0,0,14.6,5.984,5.984,0,0,0,5.4,2.6"/>
      <path id="Path_81" data-name="Path 81" class="cls-8" d="M759.7,201.5c.4-.1.8-.1,1.3-.2.5,0,.9-.1,1.3-.1a6.15,6.15,0,0,1,1.3.1,5.067,5.067,0,0,1,1.3.2V232a6.713,6.713,0,0,0,.3,2.3,3.162,3.162,0,0,0,.7,1.3,2.384,2.384,0,0,0,1.1.6,5.283,5.283,0,0,0,1.3.1,4.484,4.484,0,0,0,1.1-.1,2.959,2.959,0,0,0,1-.2,16.842,16.842,0,0,1,.5,4,4.844,4.844,0,0,1-1.8.3c-.7,0-1.4.1-2,.1a9.247,9.247,0,0,1-2.9-.4,5.651,5.651,0,0,1-3.9-3.5,9.145,9.145,0,0,1-.6-3.5V201.5Z"/>
      <path id="Path_82" data-name="Path 82" class="cls-8" d="M787.1,201.5c.4-.1.8-.1,1.3-.2.5,0,.9-.1,1.3-.1a6.15,6.15,0,0,1,1.3.1,5.067,5.067,0,0,1,1.3.2V232a6.713,6.713,0,0,0,.3,2.3,3.162,3.162,0,0,0,.7,1.3,2.384,2.384,0,0,0,1.1.6,5.283,5.283,0,0,0,1.3.1,4.484,4.484,0,0,0,1.1-.1,2.959,2.959,0,0,0,1-.2,16.842,16.842,0,0,1,.5,4,4.844,4.844,0,0,1-1.8.3c-.7,0-1.4.1-2,.1a8.246,8.246,0,0,1-2.8-.4,5.651,5.651,0,0,1-3.9-3.5,9.145,9.145,0,0,1-.6-3.5V201.5Z"/>
      <path id="Path_83" data-name="Path 83" class="cls-8" d="M825.6,240.9a13.146,13.146,0,0,1-5.5-1.1,10.83,10.83,0,0,1-4-3,13.89,13.89,0,0,1-2.4-4.5,20,20,0,0,1,0-11.2,12.214,12.214,0,0,1,2.4-4.5,10.83,10.83,0,0,1,4-3,13.486,13.486,0,0,1,5.5-1.1,13.978,13.978,0,0,1,5.6,1.1,10.83,10.83,0,0,1,4,3,12.018,12.018,0,0,1,2.3,4.5,20,20,0,0,1,0,11.2,13.685,13.685,0,0,1-2.3,4.5,10.83,10.83,0,0,1-4,3,14.337,14.337,0,0,1-5.6,1.1m0-4.2a6.21,6.21,0,0,0,5.4-2.6c1.2-1.8,1.7-4.2,1.7-7.3a13.582,13.582,0,0,0-1.7-7.3,6.908,6.908,0,0,0-10.8,0,16.523,16.523,0,0,0,0,14.6c1.1,1.8,2.9,2.6,5.4,2.6"/>
      <path id="Path_84" data-name="Path 84" class="cls-8" d="M877.8,213.2c.5-.1,1-.1,1.5-.2h2.8a5.9,5.9,0,0,1,1.4.2l5.3,22.1,6-22.1c.4-.1.8-.1,1.3-.2h1.4c.6,0,1,.1,1.5.1.4,0,.8.1,1.2.1l5.9,21.8,5.3-21.8c.4-.1.8-.1,1.2-.2h2.6a7.72,7.72,0,0,1,1.5.2l-8.1,27.1c-.5.1-.9.1-1.4.2-.5,0-.9.1-1.3.1a6.15,6.15,0,0,1-1.3-.1,6.753,6.753,0,0,1-1.4-.2l-5.8-20.5-6.1,20.5c-.5.1-1,.1-1.4.2-.5,0-.9.1-1.3.1a6.15,6.15,0,0,1-1.3-.1,5.067,5.067,0,0,1-1.3-.2Z"/>
      <path id="Path_85" data-name="Path 85" class="cls-8" d="M936.5,228c.1,3,.8,5.1,2.3,6.5s3.6,2.1,6.5,2.1a18.661,18.661,0,0,0,7.1-1.3,8.391,8.391,0,0,1,.7,1.9,8.917,8.917,0,0,1,.3,2.2,15.233,15.233,0,0,1-3.8,1.1,31.529,31.529,0,0,1-4.6.4,16.655,16.655,0,0,1-6.3-1,12.509,12.509,0,0,1-4.4-2.9,11.245,11.245,0,0,1-2.5-4.4,20,20,0,0,1,0-11.2,11.475,11.475,0,0,1,2.4-4.5,12.3,12.3,0,0,1,4-3.1,12.622,12.622,0,0,1,5.7-1.1,10.728,10.728,0,0,1,4.9,1,9.187,9.187,0,0,1,3.5,2.6,10.347,10.347,0,0,1,2.2,4,15.912,15.912,0,0,1,.7,5,9.153,9.153,0,0,1-.1,1.6c0,.6-.1,1-.1,1.4H936.5Zm13.4-3.9a8.626,8.626,0,0,0-.4-2.8,8.989,8.989,0,0,0-1.2-2.4,5.264,5.264,0,0,0-2-1.6,6.088,6.088,0,0,0-2.8-.6,6.18,6.18,0,0,0-4.9,2,10.24,10.24,0,0,0-2.1,5.4h13.4Z"/>
      <path id="Path_86" data-name="Path 86" class="cls-8" d="M973.5,201.5c.4-.1.8-.1,1.3-.2.5,0,.9-.1,1.3-.1a6.15,6.15,0,0,1,1.3.1,5.067,5.067,0,0,1,1.3.2v14.9a6.655,6.655,0,0,1,3-2.7,9.366,9.366,0,0,1,4.9-1.2,13.3,13.3,0,0,1,4.5.8,8.063,8.063,0,0,1,3.5,2.5,10.633,10.633,0,0,1,2.3,4.2,18.421,18.421,0,0,1,.8,6.1c0,4.6-1.3,8.3-3.9,10.9s-6.4,3.9-11.3,3.9a28.977,28.977,0,0,1-8.9-1.4v-38Zm5.3,34.4a11.7,11.7,0,0,0,2,.5,16.2,16.2,0,0,0,2.2.1,10.46,10.46,0,0,0,3.6-.6,7.89,7.89,0,0,0,2.9-1.8,7.8,7.8,0,0,0,1.9-3.2,12.721,12.721,0,0,0,.7-4.6,12.939,12.939,0,0,0-1.5-6.8q-1.5-2.4-5.1-2.4a6.723,6.723,0,0,0-2.4.4,7.1,7.1,0,0,0-2.2,1.3,6.341,6.341,0,0,0-1.6,2.3,9.145,9.145,0,0,0-.6,3.5v11.3Z"/>
    </g>
  </g>
</svg>
