<?xml version="1.0" encoding="utf-8"?>
<!-- Generator: Adobe Illustrator 16.0.0, SVG Export Plug-In . SVG Version: 6.00 Build 0)  -->
<!DOCTYPE svg PUBLIC "-//W3C//DTD SVG 1.1//EN" "http://www.w3.org/Graphics/SVG/1.1/DTD/svg11.dtd">
<svg version="1.1" id="Capa_1" xmlns="http://www.w3.org/2000/svg" xmlns:xlink="http://www.w3.org/1999/xlink" x="0px" y="0px"
	 width="1024px" height="720px" viewBox="0 0 1024 720" enable-background="new 0 0 1024 720" xml:space="preserve">
<g>
	<g>
		<path fill="#9A9A9A" d="M21.668,659.966c-0.392,0-0.607-0.218-0.607-0.61v-51.271c0-0.396,0.215-0.603,0.607-0.603h10.077
			c4.552,0,7.81,0.954,10.055,3.521c3.163,3.662,4.462,10.716,4.462,22.777c0,11.718-1.174,18.816-4.247,22.456
			c-2.319,2.734-5.6,3.719-10.27,3.719H21.668V659.966z M25.36,655.856c0,0.106,0.06,0.185,0.186,0.185h6.199
			c3.525,0,5.544-0.8,7.025-2.666c2.377-2.992,3.259-9.133,3.259-19.595c0-10.69-0.948-16.789-3.318-19.808
			c-1.412-1.809-3.481-2.577-6.966-2.577h-6.199c-0.126,0-0.196,0.077-0.196,0.2v44.261H25.36z"/>
		<path fill="#9A9A9A" d="M51.523,649.735c-0.122-11.036,5.626-13.771,17.991-13.799c0.126,0,0.208-0.077,0.208-0.203l-0.022-6.933
			c-0.045-3.774-1.741-6.796-6.681-6.796c-2.377,0-4.763,0.492-6.78,1.227c-0.4,0.121-0.655-0.031-0.737-0.438l-0.416-2.247
			c-0.074-0.376,0.067-0.616,0.4-0.739c2.267-0.858,5.104-1.436,7.978-1.436c7.206,0,10.302,3.852,10.302,9.795l0.078,31.188
			c0,0.393-0.208,0.6-0.604,0.6h-2.518c-0.367,0-0.593-0.152-0.656-0.514l-0.255-3.989c-0.037-0.163-0.156-0.188-0.233-0.026
			c-1.059,1.986-3.995,5.211-8.706,5.211C55.794,660.637,51.583,657.797,51.523,649.735z M69.743,649.131l-0.021-10.068
			c0-0.123-0.1-0.192-0.2-0.192c-9.97,0.037-14.125,1.962-14.002,10.765c0.063,5.322,2.374,7.592,6.258,7.592
			C65.94,657.227,69.537,653.364,69.743,649.131z"/>
		<path fill="#9A9A9A" d="M82.979,653.438v-30.907c0-0.123-0.067-0.197-0.2-0.197h-2.826c-0.381,0-0.604-0.203-0.604-0.603v-2.108
			c0-0.396,0.222-0.61,0.604-0.61h2.826c0.133,0,0.2-0.074,0.2-0.197v-6.235c0-0.393,0.21-0.607,0.607-0.607h2.833
			c0.389,0,0.611,0.215,0.611,0.607v6.235c0,0.123,0.066,0.197,0.185,0.197h5.281c0.396,0,0.607,0.215,0.607,0.61v2.108
			c0,0.399-0.211,0.603-0.607,0.603h-5.281c-0.118,0-0.185,0.074-0.185,0.197v29.87c0,3.898,1.611,5.304,5.229,4.506
			c0.318-0.055,0.467,0.123,0.507,0.526l0.115,2.085c0.029,0.353-0.104,0.607-0.467,0.703c-0.833,0.208-1.881,0.415-2.993,0.415
			C85.29,660.637,82.979,658.553,82.979,653.438z"/>
		<path fill="#9A9A9A" d="M96.896,639.199c0-17.775,5.088-20.85,12.31-20.85c7.103,0,12.184,3.074,12.184,20.85
			c0,18.29-5.081,21.361-12.184,21.361C101.984,660.561,96.896,657.489,96.896,639.199z M117.234,643.121
			c0.044-1.374,0.052-2.537,0.052-3.896c0-1.463-0.022-2.742-0.071-4.219c-0.396-10.024-2.848-13.136-8.01-13.136
			c-5.288,0-7.77,3.111-8.158,13.178c-0.055,1.458-0.078,2.725-0.078,4.177c0,1.403,0.019,2.599,0.06,3.991
			c0.359,10.599,2.836,13.828,8.176,13.828C114.442,657.045,116.894,653.805,117.234,643.121z"/>
		<path fill="#9A9A9A" d="M125.048,659.682c-0.378-0.097-0.534-0.326-0.481-0.711l0.263-2.195c0.047-0.404,0.296-0.582,0.707-0.486
			c1.585,0.444,3.733,0.971,6.414,0.971c5.733,0,8.351-2.534,8.374-6.807c-0.022-3.496-1.5-5.258-6.055-9.287
			c-4.118-3.574-9.207-7.219-9.184-13.902c-0.022-5.919,4.103-9.065,11.032-9.033c2.781,0.012,4.795,0.438,6.447,0.953
			c0.355,0.1,0.496,0.362,0.415,0.736l-0.385,2.018c-0.078,0.389-0.349,0.525-0.73,0.438c-1.925-0.508-3.469-0.734-5.159-0.734
			c-4.725,0-7.532,1.927-7.509,5.841c-0.022,4.979,4.024,7.772,8.369,11.468c4.903,4.245,6.851,6.74,6.873,11.377
			c-0.022,6.47-3.907,10.389-11.602,10.389C129.825,660.716,127.27,660.229,125.048,659.682z"/>
		<path fill="#9A9A9A" d="M162.98,639.27c0-17.243,5.018-20.92,12.395-20.92c2.233,0,3.795,0.241,5.177,0.626
			c0.355,0.1,0.511,0.34,0.478,0.703l-0.208,2.305c-0.033,0.425-0.296,0.603-0.7,0.479c-1.333-0.332-2.937-0.521-4.243-0.521
			c-6.474,0-8.866,4.662-8.866,17.328c0,12.872,2.444,17.664,8.987,17.664c1.734,0,3.544-0.229,4.921-0.563
			c0.408-0.09,0.656,0.07,0.696,0.492l0.2,2.345c0.038,0.366-0.081,0.595-0.289,0.64c-1.429,0.415-3.178,0.713-6.04,0.713
			C167.998,660.561,162.98,656.893,162.98,639.27z"/>
		<path fill="#9A9A9A" d="M184.129,639.199c0-17.775,5.089-20.85,12.31-20.85c7.104,0,12.191,3.074,12.191,20.85
			c0,18.29-5.088,21.361-12.191,21.361C189.218,660.561,184.129,657.489,184.129,639.199z M204.468,643.121
			c0.045-1.374,0.052-2.537,0.052-3.896c0-1.463-0.022-2.742-0.071-4.219c-0.4-10.024-2.848-13.136-8.01-13.136
			c-5.288,0-7.762,3.111-8.158,13.178c-0.056,1.458-0.071,2.725-0.071,4.177c0,1.403,0.008,2.599,0.059,3.991
			c0.356,10.599,2.837,13.828,8.169,13.828C201.679,657.045,204.131,653.805,204.468,643.121z"/>
		<path fill="#9A9A9A" d="M238.391,629.519v29.837c0,0.393-0.208,0.6-0.604,0.6h-2.896c-0.397,0-0.604-0.207-0.604-0.6v-29.278
			c0-3.917-1.23-8.206-6.521-8.206c-5.771,0-8.566,5.026-8.566,8.677v28.808c0,0.393-0.215,0.6-0.611,0.6h-2.955
			c-0.39,0-0.604-0.207-0.604-0.6v-40.027c0-0.39,0.214-0.604,0.604-0.604h2.499c0.37,0,0.592,0.181,0.645,0.549l0.152,4.454
			c0.022,0.163,0.13,0.229,0.211,0.118c1.799-3.192,4.947-5.495,9.649-5.495C235.109,618.35,238.391,622.157,238.391,629.519z"/>
		<path fill="#9A9A9A" d="M263.927,619.272c0.037-0.375,0.278-0.549,0.652-0.549h2.966c0.434,0,0.626,0.241,0.552,0.652
			c-1.579,7.896-5.874,26.685-9.243,40.054c-0.082,0.359-0.292,0.536-0.667,0.536h-4.679c-0.38,0-0.592-0.177-0.662-0.536
			c-3.392-13.354-7.703-32.166-9.255-40.054c-0.059-0.411,0.123-0.652,0.552-0.652h2.969c0.378,0,0.616,0.174,0.66,0.549
			c1.258,7.131,5.029,23.911,7.954,35.869c0.029,0.134,0.2,0.134,0.234,0C258.831,643.184,262.642,626.39,263.927,619.272
			L263.927,619.272z"/>
		<path fill="#9A9A9A" d="M271.89,639.27c0-17.243,5.346-20.92,11.62-20.92c6.162,0,10.917,4.032,10.502,16.268
			c-0.047,2.237-0.185,3.99-0.332,5.015c-0.052,0.363-0.263,0.537-0.649,0.537h-16.908c-0.126,0-0.197,0.1-0.197,0.196
			c0.067,12.45,2.703,16.68,9.933,16.68c2.177,0,4.48-0.533,6.417-1.312c0.4-0.134,0.678,0.011,0.715,0.445l0.208,2.188
			c0.025,0.363-0.104,0.604-0.441,0.733c-1.984,0.815-4.333,1.461-7.446,1.461C277.273,660.561,271.89,656.893,271.89,639.27z
			 M290.027,637.151c0.126,0,0.219-0.081,0.223-0.186c0.051-0.604,0.103-2.144,0.103-2.544c0.237-8.147-1.734-12.703-6.688-12.703
			c-4.963,0-7.533,4.048-7.725,15.236c0,0.126,0.074,0.196,0.2,0.196H290.027z"/>
		<path fill="#9A9A9A" d="M314.751,618.583c0.362,0.059,0.54,0.304,0.503,0.677l-0.255,3.237c-0.026,0.411-0.292,0.561-0.7,0.456
			c-0.942-0.203-1.956-0.271-2.526-0.271c-4.496,0-7.683,5.492-7.683,11.367v25.307c0,0.393-0.216,0.6-0.605,0.6h-3.014
			c-0.397,0-0.611-0.207-0.611-0.6v-40.027c0-0.39,0.214-0.604,0.611-0.604h2.685c0.381,0,0.589,0.196,0.619,0.57l0.2,5.462
			c0.016,0.197,0.163,0.182,0.237,0.012c1.634-3.915,4.319-6.439,8.148-6.418C313.347,618.35,314.055,618.438,314.751,618.583z"/>
		<path fill="#9A9A9A" d="M321.505,653.438v-30.907c0-0.123-0.074-0.197-0.2-0.197h-2.826c-0.396,0-0.606-0.203-0.606-0.603v-2.108
			c0-0.396,0.211-0.61,0.606-0.61h2.826c0.126,0,0.2-0.074,0.2-0.197v-6.235c0-0.393,0.211-0.607,0.6-0.607h2.837
			c0.393,0,0.604,0.215,0.604,0.607v6.235c0,0.123,0.07,0.197,0.203,0.197h5.274c0.392,0,0.607,0.215,0.607,0.61v2.108
			c0,0.399-0.215,0.603-0.607,0.603h-5.274c-0.132,0-0.203,0.074-0.203,0.197v29.87c0,3.898,1.621,5.304,5.237,4.506
			c0.322-0.055,0.466,0.123,0.506,0.526l0.112,2.085c0.029,0.353-0.104,0.607-0.46,0.703c-0.83,0.208-1.89,0.415-2.993,0.415
			C323.809,660.637,321.505,658.553,321.505,653.438z"/>
		<path fill="#9A9A9A" d="M337.677,611.372c0-2.092,0.108-2.566,2.36-2.566c2.222,0,2.34,0.475,2.34,2.566
			c0,2.174-0.118,2.634-2.34,2.634C337.785,614.006,337.677,613.546,337.677,611.372z M337.963,659.355v-40.027
			c0-0.39,0.214-0.604,0.608-0.604h2.896c0.392,0,0.607,0.215,0.607,0.604v40.027c0,0.393-0.215,0.6-0.607,0.6h-2.896
			C338.177,659.955,337.963,659.748,337.963,659.355z"/>
		<path fill="#9A9A9A" d="M348.77,638.95c0-12.813,2.385-20.601,11.042-20.601c3.645,0,6.874,2.439,8.096,5.748
			c0.037,0.11,0.121,0.021,0.121-0.16v-15.854c0-0.396,0.208-0.615,0.605-0.615h2.956c0.388,0,0.603,0.219,0.603,0.615v51.271
			c0,0.393-0.215,0.6-0.603,0.6h-2.563c-0.355,0-0.578-0.166-0.637-0.529l-0.229-3.943c-0.015-0.186-0.131-0.215-0.215-0.057
			c-1.351,2.953-4.237,5.135-8.31,5.135C352.613,660.561,348.77,656.533,348.77,638.95z M367.981,643.065
			c0.037-1.415,0.047-2.645,0.047-3.958c0-1.605-0.024-3.053-0.098-4.675c-0.494-10.177-3.866-12.606-7.333-12.606
			c-4.593,0-7.104,2.408-7.593,12.266c-0.071,1.667-0.095,3.171-0.095,4.837c0,1.318,0.014,2.529,0.051,3.958
			c0.311,10.402,2.615,13.91,7.522,13.91C364.544,656.797,367.686,653.805,367.981,643.065z"/>
		<path fill="#9A9A9A" d="M378.921,639.199c0-17.775,5.088-20.85,12.31-20.85c7.102,0,12.184,3.074,12.184,20.85
			c0,18.29-5.082,21.361-12.184,21.361C384.009,660.561,378.921,657.489,378.921,639.199z M399.267,643.121
			c0.029-1.374,0.04-2.537,0.04-3.896c0-1.463-0.014-2.742-0.063-4.219c-0.4-10.024-2.848-13.136-8.013-13.136
			c-5.29,0-7.77,3.111-8.156,13.178c-0.063,1.458-0.082,2.725-0.082,4.177c0,1.403,0.019,2.599,0.063,3.991
			c0.355,10.599,2.83,13.828,8.174,13.828C396.474,657.045,398.919,653.805,399.267,643.121z"/>
		<path fill="#9A9A9A" d="M407.073,659.682c-0.371-0.097-0.526-0.326-0.481-0.711l0.263-2.195c0.048-0.404,0.295-0.582,0.708-0.486
			c1.585,0.444,3.736,0.971,6.417,0.971c5.729,0,8.346-2.534,8.369-6.807c-0.023-3.496-1.5-5.258-6.055-9.287
			c-4.125-3.574-9.199-7.219-9.184-13.902c-0.015-5.919,4.103-9.065,11.028-9.033c2.792,0.012,4.8,0.438,6.451,0.953
			c0.355,0.1,0.497,0.362,0.408,0.736l-0.378,2.018c-0.082,0.389-0.345,0.525-0.732,0.438c-1.918-0.508-3.463-0.734-5.155-0.734
			c-4.729,0-7.533,1.927-7.51,5.841c-0.023,4.979,4.025,7.772,8.37,11.468c4.896,4.245,6.851,6.74,6.865,11.377
			c-0.014,6.47-3.896,10.389-11.591,10.389C411.858,660.716,409.294,660.229,407.073,659.682z"/>
		<path fill="#9A9A9A" d="M445.005,639.27c0-17.243,5.348-20.92,11.617-20.92c6.162,0,10.925,4.032,10.51,16.268
			c-0.052,2.237-0.192,3.99-0.334,5.015c-0.058,0.363-0.269,0.537-0.655,0.537h-16.908c-0.123,0-0.197,0.1-0.197,0.196
			c0.067,12.45,2.703,16.68,9.933,16.68c2.185,0,4.48-0.533,6.421-1.312c0.4-0.134,0.682,0.011,0.711,0.445l0.211,2.188
			c0.023,0.363-0.103,0.604-0.445,0.733c-1.984,0.815-4.329,1.461-7.436,1.461C450.385,660.561,445.005,656.893,445.005,639.27z
			 M463.147,637.151c0.119,0,0.215-0.081,0.215-0.186c0.056-0.604,0.111-2.144,0.111-2.544c0.237-8.147-1.734-12.703-6.703-12.703
			c-4.954,0-7.525,4.048-7.717,15.236c0,0.126,0.074,0.196,0.203,0.196H463.147z"/>
		<path fill="#9A9A9A" d="M496.336,629.519v29.837c0,0.393-0.208,0.6-0.6,0.6h-2.896c-0.4,0-0.608-0.207-0.608-0.6v-29.278
			c0-3.917-1.229-8.206-6.517-8.206c-5.771,0-8.569,5.026-8.569,8.677v28.808c0,0.393-0.215,0.6-0.604,0.6h-2.954
			c-0.397,0-0.615-0.207-0.615-0.6v-40.027c0-0.39,0.218-0.604,0.615-0.604h2.491c0.371,0,0.594,0.181,0.652,0.549l0.148,4.454
			c0.023,0.163,0.134,0.229,0.208,0.118c1.808-3.192,4.951-5.495,9.651-5.495C493.062,618.35,496.336,622.157,496.336,629.519z"/>
		<path fill="#9A9A9A" d="M516.333,639.27c0-17.243,5.354-20.92,11.621-20.92c6.161,0,10.917,4.032,10.51,16.268
			c-0.056,2.237-0.2,3.99-0.349,5.015c-0.036,0.363-0.258,0.537-0.637,0.537h-16.916c-0.118,0-0.192,0.1-0.192,0.196
			c0.066,12.45,2.703,16.68,9.932,16.68c2.179,0,4.477-0.533,6.419-1.312c0.399-0.134,0.674,0.011,0.714,0.445l0.207,2.188
			c0.021,0.363-0.1,0.604-0.444,0.733c-1.984,0.815-4.325,1.461-7.436,1.461C521.714,660.561,516.333,656.893,516.333,639.27z
			 M534.479,637.151c0.118,0,0.213-0.081,0.216-0.186c0.059-0.604,0.103-2.144,0.103-2.544c0.245-8.147-1.732-12.703-6.695-12.703
			c-4.954,0-7.531,4.048-7.71,15.236c0,0.126,0.066,0.196,0.192,0.196H534.479z"/>
		<path fill="#9A9A9A" d="M543.063,659.682c-0.382-0.097-0.529-0.326-0.481-0.711l0.259-2.195c0.049-0.404,0.305-0.582,0.712-0.486
			c1.58,0.444,3.735,0.971,6.417,0.971c5.722,0,8.344-2.534,8.373-6.807c-0.029-3.496-1.511-5.258-6.065-9.287
			c-4.118-3.574-9.2-7.219-9.177-13.902c-0.023-5.919,4.104-9.065,11.028-9.033c2.776,0.012,4.792,0.438,6.45,0.953
			c0.355,0.1,0.493,0.362,0.408,0.736l-0.385,2.018c-0.075,0.389-0.342,0.525-0.733,0.438c-1.919-0.508-3.459-0.734-5.156-0.734
			c-4.722,0-7.524,1.927-7.509,5.841c-0.016,4.979,4.029,7.772,8.372,11.468c4.903,4.245,6.844,6.74,6.866,11.377
			c-0.022,6.47-3.893,10.389-11.596,10.389C547.838,660.716,545.277,660.229,543.063,659.682z"/>
		<path fill="#9A9A9A" d="M569.476,653.438v-30.907c0-0.123-0.079-0.197-0.205-0.197h-2.824c-0.39,0-0.601-0.203-0.601-0.603v-2.108
			c0-0.396,0.211-0.61,0.601-0.61h2.824c0.126,0,0.205-0.074,0.205-0.197v-6.235c0-0.393,0.207-0.607,0.6-0.607h2.832
			c0.397,0,0.611,0.215,0.611,0.607v6.235c0,0.123,0.067,0.197,0.192,0.197h5.284c0.39,0,0.605,0.215,0.605,0.61v2.108
			c0,0.399-0.216,0.603-0.605,0.603h-5.284c-0.125,0-0.192,0.074-0.192,0.197v29.87c0,3.898,1.607,5.304,5.229,4.506
			c0.329-0.055,0.474,0.123,0.503,0.526l0.118,2.085c0.031,0.353-0.1,0.607-0.461,0.703c-0.826,0.208-1.887,0.415-2.997,0.415
			C571.778,660.637,569.476,658.553,569.476,653.438z"/>
		<path fill="#9A9A9A" d="M600.522,618.583c0.363,0.059,0.534,0.304,0.505,0.677l-0.253,3.237c-0.033,0.411-0.297,0.561-0.695,0.456
			c-0.944-0.203-1.96-0.271-2.529-0.271c-4.497,0-7.685,5.492-7.685,11.367v25.307c0,0.393-0.216,0.6-0.607,0.6h-3.012
			c-0.395,0-0.613-0.207-0.613-0.6v-40.027c0-0.39,0.219-0.604,0.613-0.604h2.682c0.377,0,0.59,0.196,0.627,0.57l0.192,5.462
			c0.025,0.197,0.17,0.182,0.236,0.012c1.637-3.915,4.325-6.439,8.154-6.418C599.119,618.35,599.835,618.438,600.522,618.583z"/>
		<path fill="#9A9A9A" d="M602.819,649.735c-0.118-11.036,5.628-13.771,17.997-13.799c0.127,0,0.196-0.077,0.196-0.203l-0.021-6.933
			c-0.04-3.774-1.732-6.796-6.67-6.796c-2.377,0-4.767,0.492-6.785,1.227c-0.399,0.121-0.663-0.031-0.739-0.438l-0.408-2.247
			c-0.074-0.376,0.063-0.616,0.4-0.739c2.263-0.858,5.095-1.436,7.969-1.436c7.211,0,10.314,3.852,10.314,9.795l0.069,31.188
			c0,0.393-0.214,0.6-0.6,0.6h-2.525c-0.355,0-0.586-0.152-0.66-0.514l-0.244-3.989c-0.032-0.163-0.158-0.188-0.243-0.026
			c-1.045,1.986-3.997,5.211-8.692,5.211C607.092,660.637,602.883,657.797,602.819,649.735z M621.046,649.131l-0.029-10.068
			c0-0.123-0.089-0.192-0.2-0.192c-9.961,0.037-14.117,1.962-13.998,10.765c0.055,5.322,2.37,7.592,6.258,7.592
			C617.232,657.227,620.839,653.364,621.046,649.131z"/>
		<path fill="#9A9A9A" d="M634.282,653.438v-30.907c0-0.123-0.079-0.197-0.2-0.197h-2.829c-0.39,0-0.604-0.203-0.604-0.603v-2.108
			c0-0.396,0.214-0.61,0.604-0.61h2.829c0.121,0,0.2-0.074,0.2-0.197v-6.235c0-0.393,0.207-0.607,0.6-0.607h2.832
			c0.397,0,0.608,0.215,0.608,0.607v6.235c0,0.123,0.07,0.197,0.196,0.197h5.28c0.385,0,0.601,0.215,0.601,0.61v2.108
			c0,0.399-0.216,0.603-0.601,0.603h-5.28c-0.126,0-0.196,0.074-0.196,0.197v29.87c0,3.898,1.626,5.304,5.24,4.506
			c0.318-0.055,0.466,0.123,0.495,0.526l0.118,2.085c0.026,0.353-0.103,0.607-0.461,0.703c-0.826,0.208-1.887,0.415-2.997,0.415
			C636.585,660.637,634.282,658.553,634.282,653.438z"/>
		<path fill="#9A9A9A" d="M648.273,639.27c0-17.243,5.34-20.92,11.612-20.92c6.17,0,10.928,4.032,10.51,16.268
			c-0.048,2.237-0.185,3.99-0.34,5.015c-0.045,0.363-0.267,0.537-0.645,0.537h-16.916c-0.119,0-0.192,0.1-0.192,0.196
			c0.073,12.45,2.703,16.68,9.928,16.68c2.188,0,4.484-0.533,6.425-1.312c0.403-0.134,0.677,0.011,0.711,0.445l0.208,2.188
			c0.033,0.363-0.093,0.604-0.445,0.733c-1.977,0.815-4.324,1.461-7.443,1.461C653.65,660.561,648.273,656.893,648.273,639.27z
			 M666.415,637.151c0.114,0,0.214-0.081,0.214-0.186c0.056-0.604,0.108-2.144,0.108-2.544c0.236-8.147-1.732-12.703-6.696-12.703
			c-4.958,0-7.532,4.048-7.717,15.236c0,0.126,0.066,0.196,0.192,0.196H666.415z"/>
		<path fill="#9A9A9A" d="M678.294,667.967c-0.366-0.135-0.484-0.397-0.398-0.761l0.403-2.258c0.089-0.4,0.34-0.537,0.737-0.427
			c1.663,0.508,3.661,0.952,6.024,0.952c6.78,0,9.125-2.896,9.125-9.056l-0.019-4.688c0-0.174-0.129-0.208-0.227-0.07
			c-1.355,2.67-4.132,4.645-7.864,4.645c-6.622,0-11.059-4.137-11.059-18.266c0-11.941,2.54-19.737,10.99-19.737
			c3.745,0,6.793,2.3,8.1,5.521c0.063,0.158,0.204,0.155,0.22-0.026l0.059-4.514c0.052-0.379,0.271-0.56,0.637-0.56h2.719
			c0.392,0,0.607,0.215,0.607,0.604v37.229c0,9.542-5.385,12.571-13.055,12.571C682.668,669.128,680.21,668.604,678.294,667.967z
			 M686.601,652.772c6.229,0,7.369-5.979,7.521-11.681c0.042-1.286,0.045-2.222,0.045-3.122c0-1.323-0.019-2.645-0.063-3.921
			c-0.311-7.001-1.829-12.255-7.628-12.255c-5.689,0-7.073,6.681-7.358,12.691c-0.048,1.195-0.078,2.377-0.078,3.484
			c0,1.048,0.03,2.199,0.089,3.373C679.436,646.64,680.895,652.772,686.601,652.772L686.601,652.772z"/>
		<path fill="#9A9A9A" d="M705.888,611.372c0-2.092,0.11-2.566,2.348-2.566c2.229,0,2.348,0.475,2.348,2.566
			c0,2.174-0.118,2.634-2.348,2.634C705.998,614.006,705.888,613.546,705.888,611.372z M706.174,659.355v-40.027
			c0-0.39,0.211-0.604,0.61-0.604h2.888c0.393,0,0.608,0.215,0.608,0.604v40.027c0,0.393-0.216,0.6-0.608,0.6h-2.888
			C706.385,659.955,706.174,659.748,706.174,659.355z"/>
		<path fill="#9A9A9A" d="M716.383,649.735c-0.126-11.036,5.625-13.771,17.987-13.799c0.126,0,0.203-0.077,0.203-0.203l-0.015-6.933
			c-0.06-3.774-1.749-6.796-6.689-6.796c-2.369,0-4.754,0.492-6.775,1.227c-0.396,0.121-0.66-0.031-0.733-0.438l-0.416-2.247
			c-0.065-0.376,0.061-0.616,0.4-0.739c2.267-0.858,5.104-1.436,7.978-1.436c7.206,0,10.31,3.852,10.31,9.795l0.07,31.188
			c0,0.393-0.211,0.6-0.61,0.6h-2.516c-0.361,0-0.593-0.152-0.662-0.514l-0.244-3.989c-0.031-0.163-0.171-0.188-0.237-0.026
			c-1.052,1.986-4.008,5.211-8.703,5.211C720.652,660.637,716.434,657.797,716.383,649.735z M734.603,649.131l-0.021-10.068
			c0-0.123-0.104-0.192-0.208-0.192c-9.962,0.037-14.121,1.962-13.997,10.765c0.058,5.322,2.377,7.592,6.257,7.592
			C730.796,657.227,734.392,653.364,734.603,649.131z"/>
	</g>
	<path fill="#AAC56F" d="M124.389,475.519c-0.993,0.386-1.015,1.286-0.052,1.582c20.108,6.263,31.996,23.293,31.996,46.068
		c0,43.438-21.616,61.771-72.568,61.771H24.313c-3.318,0-5.166-1.845-5.166-5.164V387.248c0-3.321,1.848-5.17,5.166-5.17h58.274
		c47.271,0,65.936,19.898,65.936,51.747c0,18.411-9.728,35.913-24.138,41.693H124.389z M64.759,418.6c-0.814,0-1.4,0.368-1.4,1.3
		v43.636c0,0.818,0.585,1.393,1.4,1.393h15.769c18.079,0,26.004-6.978,26.004-23.72c0-16.382-9.192-22.611-25.715-22.611H64.755
		L64.759,418.6z M113.227,521.24c0-18.437-9.687-26.69-29.889-26.512l-18.579,0.14c-0.814,0-1.4,0.59-1.4,1.403v50.157
		c0,0.826,0.585,1.399,1.4,1.399h19.901C103.247,547.828,113.227,539.456,113.227,521.24"/>
	<path fill="#AAC56F" d="M179.042,483.992c0-85.482,27.87-103.535,65.563-103.535c36.147,0,62.021,18.932,60.999,78.479
		c-0.122,11.576-1.021,22.309-1.926,29.811c-0.303,3.1-2.125,4.64-5.462,4.64H221.48c-0.859,0-1.407,0.604-1.407,1.423
		c0.37,45.142,10.332,59.381,44.108,59.381c9.419,0,19.313-2.051,27.379-4.869c3.385-0.877,5.732,0.207,5.996,3.851l2.159,21.771
		c0.258,3.097-0.785,5.147-3.83,6.211c-10.78,3.861-24.472,6.735-39.469,6.735C209.571,587.89,179.042,569.84,179.042,483.992
		 M267.993,467.009c0.845,0,1.629-0.548,1.645-1.385c0.134-2.57,0.26-7.666,0.26-9.585c0.58-28.291-4.992-44.09-23.079-44.09
		c-18.626,0-25.871,14.562-26.519,53.645c0,0.855,0.555,1.415,1.411,1.415H267.993z"/>
	<path fill="#AAC56F" d="M325.675,483.992c0-85.482,27.864-103.535,65.563-103.535c36.152,0,62.034,18.932,61,78.479
		c-0.118,11.576-1.015,22.309-1.921,29.811c-0.3,3.1-2.137,4.64-5.463,4.64H368.11c-0.848,0-1.393,0.604-1.393,1.423
		c0.355,45.142,10.314,59.381,44.111,59.381c9.409,0,19.3-2.051,27.37-4.869c3.385-0.877,5.729,0.207,5.988,3.851l2.174,21.771
		c0.255,3.097-0.789,5.147-3.843,6.211c-10.774,3.861-24.458,6.735-39.463,6.735C356.205,587.89,325.675,569.84,325.675,483.992
		 M414.635,467.009c0.848,0,1.622-0.548,1.637-1.385c0.137-2.57,0.259-7.666,0.259-9.585c0.586-28.291-4.983-44.09-23.075-44.09
		c-18.619,0-25.867,14.562-26.512,53.645c0,0.855,0.548,1.415,1.403,1.415H414.635z"/>
	<path fill="#3C679B" d="M520.7,589.9c-2.753,0-4.229-1.484-4.229-4.232V383.264c0-2.748,1.477-4.236,4.229-4.236h48.241
		c20.435,0,35.581,3.74,46.257,14.161c14.646,14.58,21.161,42.469,21.161,91.396c0,46.142-5.667,73.798-18.624,88.803
		c-10.976,12.418-26.899,16.513-48.794,16.513H520.7L520.7,589.9z M551.892,556.472c0,0.692,0.444,1.141,1.145,1.141h15.905
		c10.703,0,17.013-2.948,21.643-9.258c7.65-10.835,9.864-31.907,9.864-63.774c0-33.373-2.414-54.615-10.583-65.091
		c-4.333-5.585-10.765-8.173-20.924-8.173h-15.905c-0.7,0-1.145,0.451-1.145,1.14V556.472L551.892,556.472z"/>
	<path fill="#3C679B" d="M793.702,654.778c-29.91-12.794-46.394-47.694-59.514-113.748c-0.082-0.623-0.534-1.023-1.155-1.023
		h-40.655c-0.622,0-1.08,0.457-1.148,1.023c-3.155,17.989-5.809,34.124-7.169,44.894c-0.229,2.371-1.955,3.977-4.361,3.977H652.05
		c-2.715,0-4.569-1.924-4.236-4.564c5.393-37.174,25.782-144.96,38.007-202.968c0.419-2.053,1.988-3.341,4.091-3.341h46.069
		c2.093,0,3.77,1.259,4.088,3.307c7.754,44.166,15.691,88.323,23.809,132.477c11.898,66.48,24.978,97.735,46.075,108.805
		c7.048,3.682,15.039,5.178,23.935,5.178c6.933,0,15.221-1.141,21.956-3.585c2.767-0.771,4.692,0.471,4.908,3.288l1.773,22.79
		c0.195,2.519-0.845,4.073-3.3,4.722c-10.235,3.177-21.371,5.059-31.807,5.059C814.578,661.066,803.52,659.016,793.702,654.778
		 M728.751,507.797c0.782,0,1.267-0.619,1.171-1.348c-5.614-31.227-12.235-65.959-16.323-88.2c-0.031-0.3-1.293-0.297-1.326,0
		c-4.093,22.233-10.799,56.964-16.523,88.182c-0.124,0.781,0.384,1.366,1.166,1.366H728.751z"/>
	<path fill="#3C679B" d="M883.154,383.264v23.694c0,2.751-1.474,4.232-4.229,4.232h-30.208c-0.699,0-1.145,0.444-1.145,1.147v173.33
		c0,2.748-1.479,4.232-4.235,4.232h-27.686c-2.755,0-4.229-1.484-4.229-4.232v-173.33c0-0.703-0.444-1.147-1.152-1.147h-30.215
		c-2.74,0-4.222-1.481-4.222-4.232v-23.694c0-2.748,1.481-4.236,4.222-4.236h98.87C881.681,379.027,883.154,380.516,883.154,383.264
		"/>
	<path fill="#3C679B" d="M885.499,589.908c-2.722,0-4.573-1.926-4.24-4.572c5.399-37.174,25.781-144.96,38.01-202.968
		c0.412-2.053,1.997-3.322,4.084-3.322h46.088c2.074,0,3.648,1.256,4.074,3.288c12.302,57.305,32.273,165.55,37.495,203.042
		c0.3,2.622-1.529,4.524-4.232,4.524h-27.701c-2.407,0-4.125-1.605-4.358-3.977c-1.358-10.78-3.974-26.904-7.077-44.894
		c-0.082-0.623-0.529-1.023-1.163-1.023h-40.646c-0.618,0-1.089,0.457-1.155,1.016c-3.158,17.989-5.806,34.121-7.169,44.901
		c-0.237,2.371-1.948,3.977-4.358,3.977h-27.646L885.499,589.908z M962.205,507.805c0.776,0,1.27-0.611,1.161-1.342
		c-5.606-31.229-12.228-65.958-16.315-88.203c-0.029-0.297-1.296-0.297-1.334,0c-4.088,22.23-10.797,56.959-16.523,88.182
		c-0.111,0.781,0.393,1.363,1.179,1.363H962.205z"/>
	<path fill="#AAC56F" d="M639.277,241.945c-15.602-16.288-35.381-25.201-57.008-30.412c-20.571-4.948-41.299-4.822-62.188-2.277
		c-15.583,1.888-21.353,3.772-24.842,1.695l-20.041,35.503l-20.042-35.503c-3.493,2.077-9.262,0.192-24.835-1.695
		c-20.9-2.544-41.625-2.671-62.199,2.277c-21.627,5.211-41.4,14.124-57.016,30.412c-13.168,13.747-10.939,27.425,5.443,37.188
		c5.29,3.151,11.015,5.232,16.962,6.714c40.52,10.07,73.005-3.051,99.349-40.75c4.393-6.28,7.674-8.559,14.47-3.14
		c2.966,2.369,3.217,3.896,2.411,6.954c-1.582,5.963-1.837,11.98,0.637,19.402c8.454-4.777,16.698-9.348,24.819-13.951
		c8.128,4.604,16.36,9.174,24.812,13.951c2.488-7.421,2.229-13.438,0.645-19.402c-0.808-3.059-0.557-4.585,2.414-6.954
		c6.799-5.418,10.072-3.14,14.461,3.14c26.348,37.7,58.834,50.82,99.348,40.75c5.962-1.481,11.673-3.563,16.976-6.714
		C650.229,269.37,652.45,255.691,639.277,241.945"/>
	<path fill="#AAC56F" d="M675.173,148.619c-30.685-9.251-61.378-6.477-91.767,2.185c-28.907,8.247-54.452,22.879-78.52,40.614
		c-17.958,13.209-23.787,19.571-29.548,19.442c-5.767,0.129-11.591-6.233-29.544-19.442c-24.072-17.734-49.613-32.367-78.524-40.614
		c-30.381-8.662-61.074-11.436-91.758-2.185c-25.887,7.799-32.696,26.271-19.236,49.791c4.337,7.591,9.956,14.16,16.288,20.148
		c43.098,40.751,92.44,47.202,151.359,18.979c9.817-4.714,15.46-5.232,20.079,6.218c2.019,5.003,1.274,7.065-1.871,10.281
		c-6.114,6.262-10.639,13.534-12.75,24.444c15.702,0,30.899,0.16,45.957,0.082c15.057,0.078,30.256-0.082,45.954-0.082
		c-2.107-10.91-6.625-18.182-12.744-24.444c-3.147-3.216-3.888-5.277-1.874-10.281c4.622-11.451,10.259-10.933,20.079-6.218
		c58.919,28.222,108.261,21.771,151.36-18.979c6.332-5.988,11.946-12.557,16.29-20.148
		C707.861,174.89,701.058,156.417,675.173,148.619"/>
	<path fill="#AAC56F" d="M439.446,115.427c-3.962,5.288-8.091,9.717-10.988,14.842c-11.231,19.875,0.397,40.958,23.098,41.743
		c7.917,0.278,15.85,0.278,23.782,0.234c7.933,0.044,15.873,0.044,23.782-0.234c22.698-0.785,34.326-21.868,23.097-41.743
		c-2.896-5.125-7.024-9.554-10.991-14.842c2.025-2.5,4.084-5.025,6.091-7.569c9.94-12.591,16.31-26.72,16.604-42.88
		c0.068-3.17-3.235-8.633-5.806-9.173c-5.667-1.215-6.106,4.133-6.232,8.499c-0.537,18.335-9.98,32.16-22.072,44.98
		c-1.877-0.807-3.44-1.119-4.543-2.007c-6.645-5.33-13.272-8.162-19.931-8.106c-6.654-0.056-13.287,2.777-19.924,8.106
		c-1.106,0.888-2.669,1.2-4.551,2.007c-12.091-12.82-21.538-26.645-22.068-44.98c-0.125-4.365-0.562-9.713-6.233-8.499
		c-2.572,0.541-5.869,6.003-5.809,9.173c0.303,16.16,6.672,30.289,16.605,42.88C435.369,110.401,437.425,112.927,439.446,115.427"/>
	<path fill="#AAC56F" d="M523.414,287.642h-95.97c-0.374,3.056-0.603,6.782-0.421,11.081c0,0.007,0,0.018,0,0.018h96.851
		C524.059,295.105,523.933,291.39,523.414,287.642"/>
	<path fill="#AAC56F" d="M430.448,318.375c0.066,0.23,0.145,0.423,0.215,0.634c0.658,2.108,1.437,4.274,2.325,6.473h84.667
		c1.778-4.388,3.444-9.42,4.626-14.842H428.5C429.003,313.121,429.626,315.687,430.448,318.375"/>
	<path fill="#AAC56F" d="M442.128,342.939c8.188,14.265,17.65,24.629,27.822,34.441c1.692,1.633,3.396,3.377,5.388,3.147
		c1.984,0.229,3.695-1.515,5.385-3.147c10.183-9.812,19.634-20.176,27.825-34.441h-33.21H442.128z"/>
</g>
</svg>
