<?xml version="1.0" encoding="utf-8"?>
<!-- Generator: Adobe Illustrator 16.0.0, SVG Export Plug-In . SVG Version: 6.00 Build 0)  -->
<!DOCTYPE svg PUBLIC "-//W3C//DTD SVG 1.1//EN" "http://www.w3.org/Graphics/SVG/1.1/DTD/svg11.dtd">
<svg version="1.1" id="Capa_1" xmlns="http://www.w3.org/2000/svg" xmlns:xlink="http://www.w3.org/1999/xlink" x="0px" y="0px"
	 width="792px" height="612px" viewBox="0 0 792 612" enable-background="new 0 0 792 612" xml:space="preserve">
<g>
	<g>
		<path fill="#9A9A9A" d="M266.106,385.079c-0.104,0-0.16-0.058-0.16-0.161v-13.521c0-0.104,0.057-0.159,0.16-0.159h2.657
			c1.2,0,2.06,0.252,2.651,0.929c0.834,0.966,1.177,2.826,1.177,6.007c0,3.09-0.31,4.962-1.12,5.922
			c-0.611,0.721-1.477,0.98-2.708,0.98h-2.657V385.079z M267.08,383.995c0,0.028,0.016,0.049,0.049,0.049h1.635
			c0.93,0,1.462-0.211,1.853-0.703c0.627-0.789,0.859-2.408,0.859-5.167c0-2.819-0.25-4.428-0.875-5.224
			c-0.372-0.477-0.918-0.68-1.837-0.68h-1.635c-0.033,0-0.052,0.021-0.052,0.053v11.672H267.08z"/>
		<path fill="#9A9A9A" d="M273.979,382.381c-0.032-2.91,1.483-3.631,4.744-3.639c0.033,0,0.055-0.021,0.055-0.054l-0.006-1.828
			c-0.012-0.995-0.459-1.792-1.762-1.792c-0.627,0-1.256,0.13-1.788,0.323c-0.105,0.032-0.173-0.008-0.194-0.115l-0.109-0.593
			c-0.02-0.099,0.018-0.162,0.105-0.194c0.598-0.227,1.346-0.379,2.104-0.379c1.9,0,2.717,1.016,2.717,2.583l0.021,8.225
			c0,0.104-0.055,0.158-0.159,0.158h-0.664c-0.097,0-0.156-0.04-0.173-0.136l-0.067-1.052c-0.01-0.043-0.041-0.05-0.062-0.007
			c-0.279,0.523-1.054,1.374-2.296,1.374C275.105,385.256,273.995,384.507,273.979,382.381z M278.784,382.222l-0.006-2.655
			c0-0.032-0.026-0.051-0.053-0.051c-2.629,0.01-3.725,0.518-3.692,2.839c0.017,1.403,0.626,2.002,1.65,2.002
			C277.781,384.356,278.729,383.338,278.784,382.222z"/>
		<path fill="#9A9A9A" d="M282.274,383.357v-8.15c0-0.032-0.018-0.052-0.053-0.052h-0.745c-0.101,0-0.159-0.054-0.159-0.159v-0.556
			c0-0.104,0.059-0.161,0.159-0.161h0.745c0.035,0,0.053-0.02,0.053-0.052v-1.645c0-0.104,0.056-0.16,0.16-0.16h0.747
			c0.103,0,0.161,0.057,0.161,0.16v1.645c0,0.032,0.018,0.052,0.049,0.052h1.393c0.104,0,0.16,0.057,0.16,0.161v0.556
			c0,0.105-0.056,0.159-0.16,0.159h-1.393c-0.031,0-0.049,0.02-0.049,0.052v7.877c0,1.028,0.425,1.398,1.379,1.188
			c0.084-0.015,0.123,0.032,0.134,0.139l0.03,0.55c0.008,0.093-0.027,0.16-0.123,0.186c-0.22,0.055-0.496,0.109-0.789,0.109
			C282.884,385.256,282.274,384.706,282.274,383.357z"/>
		<path fill="#9A9A9A" d="M285.944,379.603c0-4.688,1.342-5.498,3.246-5.498c1.873,0,3.213,0.811,3.213,5.498
			c0,4.823-1.34,5.633-3.213,5.633C287.286,385.235,285.944,384.426,285.944,379.603z M291.308,380.637
			c0.012-0.362,0.014-0.669,0.014-1.027c0-0.386-0.006-0.723-0.019-1.112c-0.104-2.644-0.751-3.464-2.112-3.464
			c-1.395,0-2.049,0.82-2.151,3.475c-0.015,0.385-0.021,0.719-0.021,1.102c0,0.37,0.005,0.686,0.016,1.053
			c0.095,2.795,0.748,3.646,2.156,3.646C290.571,384.309,291.218,383.454,291.308,380.637z"/>
		<path fill="#9A9A9A" d="M293.368,385.004c-0.1-0.025-0.141-0.086-0.127-0.188l0.069-0.579c0.013-0.106,0.078-0.153,0.187-0.128
			c0.418,0.117,0.984,0.256,1.691,0.256c1.512,0,2.202-0.668,2.208-1.795c-0.006-0.922-0.396-1.387-1.597-2.449
			c-1.086-0.942-2.428-1.903-2.422-3.666c-0.006-1.561,1.082-2.391,2.909-2.382c0.733,0.003,1.265,0.115,1.7,0.251
			c0.094,0.026,0.131,0.096,0.109,0.194l-0.102,0.532c-0.021,0.103-0.092,0.139-0.192,0.115c-0.508-0.134-0.915-0.193-1.36-0.193
			c-1.246,0-1.986,0.508-1.98,1.54c-0.006,1.313,1.062,2.05,2.207,3.024c1.293,1.119,1.807,1.777,1.813,3
			c-0.006,1.706-1.03,2.739-3.06,2.739C294.628,385.276,293.954,385.148,293.368,385.004z"/>
		<path fill="#9A9A9A" d="M303.371,379.621c0-4.547,1.323-5.517,3.269-5.517c0.589,0,1.001,0.063,1.365,0.165
			c0.094,0.026,0.135,0.09,0.126,0.186l-0.055,0.607c-0.009,0.112-0.078,0.159-0.185,0.127c-0.352-0.088-0.774-0.138-1.119-0.138
			c-1.707,0-2.338,1.229-2.338,4.569c0,3.395,0.645,4.658,2.37,4.658c0.457,0,0.935-0.061,1.298-0.148
			c0.107-0.023,0.173,0.019,0.184,0.13l0.053,0.618c0.01,0.097-0.021,0.157-0.076,0.169c-0.377,0.109-0.838,0.188-1.593,0.188
			C304.694,385.235,303.371,384.269,303.371,379.621z"/>
		<path fill="#9A9A9A" d="M308.948,379.603c0-4.688,1.342-5.498,3.246-5.498c1.873,0,3.215,0.811,3.215,5.498
			c0,4.823-1.342,5.633-3.215,5.633C310.29,385.235,308.948,384.426,308.948,379.603z M314.312,380.637
			c0.012-0.362,0.014-0.669,0.014-1.027c0-0.386-0.006-0.723-0.019-1.112c-0.105-2.644-0.751-3.464-2.112-3.464
			c-1.395,0-2.047,0.82-2.151,3.475c-0.015,0.385-0.019,0.719-0.019,1.102c0,0.37,0.002,0.686,0.016,1.053
			c0.094,2.795,0.748,3.646,2.154,3.646C313.576,384.309,314.223,383.454,314.312,380.637z"/>
		<path fill="#9A9A9A" d="M323.257,377.05v7.868c0,0.104-0.055,0.158-0.159,0.158h-0.764c-0.104,0-0.159-0.055-0.159-0.158v-7.721
			c0-1.033-0.324-2.164-1.72-2.164c-1.521,0-2.259,1.325-2.259,2.288v7.597c0,0.104-0.057,0.158-0.161,0.158h-0.779
			c-0.103,0-0.159-0.055-0.159-0.158v-10.556c0-0.103,0.057-0.159,0.159-0.159h0.659c0.098,0,0.156,0.048,0.17,0.145l0.04,1.175
			c0.006,0.043,0.034,0.061,0.056,0.031c0.475-0.842,1.305-1.449,2.545-1.449C322.392,374.104,323.257,375.108,323.257,377.05z"/>
		<path fill="#9A9A9A" d="M329.991,374.348c0.01-0.099,0.073-0.145,0.172-0.145h0.782c0.114,0,0.165,0.063,0.146,0.172
			c-0.416,2.082-1.549,7.037-2.438,10.563c-0.021,0.095-0.077,0.142-0.176,0.142h-1.233c-0.101,0-0.156-0.047-0.175-0.142
			c-0.895-3.521-2.031-8.482-2.44-10.563c-0.016-0.108,0.032-0.172,0.146-0.172h0.783c0.1,0,0.162,0.046,0.174,0.145
			c0.332,1.881,1.326,6.306,2.098,9.459c0.008,0.035,0.053,0.035,0.062,0C328.647,380.653,329.652,376.225,329.991,374.348
			L329.991,374.348z"/>
		<path fill="#9A9A9A" d="M332.091,379.621c0-4.547,1.41-5.517,3.064-5.517c1.625,0,2.879,1.063,2.77,4.29
			c-0.013,0.59-0.049,1.052-0.088,1.322c-0.014,0.096-0.069,0.142-0.171,0.142h-4.459c-0.033,0-0.052,0.026-0.052,0.052
			c0.018,3.283,0.713,4.398,2.619,4.398c0.574,0,1.182-0.141,1.692-0.346c0.105-0.035,0.179,0.003,0.188,0.117l0.055,0.577
			c0.007,0.096-0.027,0.159-0.116,0.193c-0.523,0.215-1.143,0.385-1.964,0.385C333.511,385.235,332.091,384.269,332.091,379.621z
			 M336.874,379.063c0.033,0,0.058-0.021,0.059-0.049c0.014-0.159,0.027-0.565,0.027-0.671c0.063-2.148-0.457-3.35-1.764-3.35
			c-1.309,0-1.986,1.067-2.037,4.018c0,0.033,0.02,0.052,0.053,0.052H336.874z"/>
		<path fill="#9A9A9A" d="M343.394,374.166c0.096,0.016,0.143,0.08,0.133,0.179l-0.067,0.854c-0.007,0.108-0.077,0.147-0.185,0.12
			c-0.248-0.054-0.516-0.071-0.666-0.071c-1.186,0-2.026,1.448-2.026,2.997v6.674c0,0.104-0.057,0.158-0.159,0.158h-0.795
			c-0.104,0-0.161-0.055-0.161-0.158v-10.556c0-0.103,0.057-0.159,0.161-0.159h0.708c0.101,0,0.155,0.052,0.163,0.15l0.053,1.44
			c0.004,0.052,0.043,0.048,0.063,0.003c0.431-1.032,1.139-1.698,2.148-1.692C343.023,374.104,343.21,374.128,343.394,374.166z"/>
		<path fill="#9A9A9A" d="M345.175,383.357v-8.15c0-0.032-0.02-0.052-0.053-0.052h-0.745c-0.104,0-0.16-0.054-0.16-0.159v-0.556
			c0-0.104,0.056-0.161,0.16-0.161h0.745c0.033,0,0.053-0.02,0.053-0.052v-1.645c0-0.104,0.056-0.16,0.158-0.16h0.748
			c0.104,0,0.159,0.057,0.159,0.16v1.645c0,0.032,0.019,0.052,0.054,0.052h1.391c0.104,0,0.16,0.057,0.16,0.161v0.556
			c0,0.105-0.057,0.159-0.16,0.159h-1.391c-0.035,0-0.054,0.02-0.054,0.052v7.877c0,1.028,0.428,1.398,1.381,1.188
			c0.085-0.015,0.123,0.032,0.134,0.139l0.029,0.55c0.008,0.093-0.027,0.16-0.121,0.186c-0.219,0.055-0.498,0.109-0.789,0.109
			C345.782,385.256,345.175,384.706,345.175,383.357z"/>
		<path fill="#9A9A9A" d="M349.439,372.265c0-0.552,0.028-0.677,0.622-0.677c0.586,0,0.617,0.125,0.617,0.677
			c0,0.573-0.031,0.694-0.617,0.694C349.468,372.959,349.439,372.838,349.439,372.265z M349.515,384.918v-10.556
			c0-0.103,0.057-0.159,0.16-0.159h0.764c0.104,0,0.16,0.057,0.16,0.159v10.556c0,0.104-0.057,0.158-0.16,0.158h-0.764
			C349.571,385.076,349.515,385.021,349.515,384.918z"/>
		<path fill="#9A9A9A" d="M352.364,379.537c0-3.379,0.629-5.433,2.912-5.433c0.961,0,1.813,0.644,2.135,1.516
			c0.01,0.029,0.032,0.006,0.032-0.042v-4.181c0-0.104,0.055-0.162,0.159-0.162h0.779c0.103,0,0.159,0.058,0.159,0.162v13.521
			c0,0.104-0.057,0.158-0.159,0.158h-0.676c-0.094,0-0.152-0.044-0.168-0.14l-0.061-1.04c-0.004-0.049-0.034-0.057-0.057-0.015
			c-0.356,0.778-1.117,1.354-2.191,1.354C353.378,385.235,352.364,384.174,352.364,379.537z M357.431,380.622
			c0.01-0.373,0.013-0.697,0.013-1.044c0-0.423-0.007-0.805-0.026-1.232c-0.13-2.684-1.02-3.324-1.934-3.324
			c-1.211,0-1.873,0.635-2.002,3.234c-0.019,0.439-0.025,0.836-0.025,1.275c0,0.348,0.004,0.667,0.014,1.044
			c0.082,2.743,0.689,3.668,1.983,3.668C356.524,384.243,357.353,383.454,357.431,380.622z"/>
		<path fill="#9A9A9A" d="M360.315,379.603c0-4.688,1.342-5.498,3.246-5.498c1.873,0,3.213,0.811,3.213,5.498
			c0,4.823-1.34,5.633-3.213,5.633C361.657,385.235,360.315,384.426,360.315,379.603z M365.681,380.637
			c0.008-0.362,0.011-0.669,0.011-1.027c0-0.386-0.004-0.723-0.017-1.112c-0.105-2.644-0.751-3.464-2.113-3.464
			c-1.395,0-2.049,0.82-2.15,3.475c-0.017,0.385-0.021,0.719-0.021,1.102c0,0.37,0.005,0.686,0.017,1.053
			c0.094,2.795,0.746,3.646,2.155,3.646C364.944,384.309,365.589,383.454,365.681,380.637z"/>
		<path fill="#9A9A9A" d="M367.739,385.004c-0.098-0.025-0.139-0.086-0.127-0.188l0.069-0.579c0.013-0.106,0.078-0.153,0.187-0.128
			c0.418,0.117,0.985,0.256,1.692,0.256c1.511,0,2.201-0.668,2.207-1.795c-0.006-0.922-0.396-1.387-1.597-2.449
			c-1.088-0.942-2.426-1.903-2.422-3.666c-0.004-1.561,1.082-2.391,2.908-2.382c0.736,0.003,1.266,0.115,1.701,0.251
			c0.094,0.026,0.131,0.096,0.107,0.194l-0.1,0.532c-0.021,0.103-0.091,0.139-0.193,0.115c-0.506-0.134-0.913-0.193-1.359-0.193
			c-1.247,0-1.986,0.508-1.98,1.54c-0.006,1.313,1.062,2.05,2.207,3.024c1.291,1.119,1.807,1.777,1.811,3
			c-0.004,1.706-1.027,2.739-3.057,2.739C369.001,385.276,368.325,385.148,367.739,385.004z"/>
		<path fill="#9A9A9A" d="M377.742,379.621c0-4.547,1.41-5.517,3.063-5.517c1.625,0,2.881,1.063,2.771,4.29
			c-0.014,0.59-0.051,1.052-0.088,1.322c-0.016,0.096-0.071,0.142-0.173,0.142h-4.459c-0.032,0-0.052,0.026-0.052,0.052
			c0.018,3.283,0.713,4.398,2.619,4.398c0.576,0,1.182-0.141,1.693-0.346c0.105-0.035,0.18,0.003,0.188,0.117l0.056,0.577
			c0.006,0.096-0.027,0.159-0.117,0.193c-0.523,0.215-1.142,0.385-1.961,0.385C379.161,385.235,377.742,384.269,377.742,379.621z
			 M382.526,379.063c0.031,0,0.057-0.021,0.057-0.049c0.015-0.159,0.029-0.565,0.029-0.671c0.063-2.148-0.457-3.35-1.768-3.35
			c-1.307,0-1.984,1.067-2.035,4.018c0,0.033,0.02,0.052,0.054,0.052H382.526z"/>
		<path fill="#9A9A9A" d="M391.278,377.05v7.868c0,0.104-0.055,0.158-0.158,0.158h-0.764c-0.105,0-0.16-0.055-0.16-0.158v-7.721
			c0-1.033-0.324-2.164-1.719-2.164c-1.521,0-2.26,1.325-2.26,2.288v7.597c0,0.104-0.057,0.158-0.159,0.158h-0.779
			c-0.104,0-0.162-0.055-0.162-0.158v-10.556c0-0.103,0.058-0.159,0.162-0.159h0.657c0.098,0,0.156,0.048,0.172,0.145l0.039,1.175
			c0.006,0.043,0.035,0.061,0.055,0.031c0.477-0.842,1.306-1.449,2.545-1.449C390.415,374.104,391.278,375.108,391.278,377.05z"/>
		<path fill="#9A9A9A" d="M396.552,379.621c0-4.547,1.412-5.517,3.064-5.517c1.625,0,2.879,1.063,2.771,4.29
			c-0.015,0.59-0.053,1.052-0.092,1.322c-0.01,0.096-0.068,0.142-0.168,0.142h-4.461c-0.031,0-0.051,0.026-0.051,0.052
			c0.018,3.283,0.713,4.398,2.619,4.398c0.574,0,1.181-0.141,1.692-0.346c0.105-0.035,0.178,0.003,0.188,0.117l0.055,0.577
			c0.006,0.096-0.026,0.159-0.117,0.193c-0.523,0.215-1.141,0.385-1.961,0.385C397.971,385.235,396.552,384.269,396.552,379.621z
			 M401.337,379.063c0.031,0,0.056-0.021,0.057-0.049c0.016-0.159,0.027-0.565,0.027-0.671c0.064-2.148-0.457-3.35-1.766-3.35
			c-1.307,0-1.986,1.067-2.033,4.018c0,0.033,0.018,0.052,0.051,0.052H401.337z"/>
		<path fill="#9A9A9A" d="M403.601,385.004c-0.101-0.025-0.14-0.086-0.127-0.188l0.068-0.579c0.013-0.106,0.08-0.153,0.188-0.128
			c0.417,0.117,0.985,0.256,1.692,0.256c1.509,0,2.2-0.668,2.208-1.795c-0.008-0.922-0.398-1.387-1.6-2.449
			c-1.086-0.942-2.426-1.903-2.42-3.666c-0.006-1.561,1.082-2.391,2.908-2.382c0.732,0.003,1.264,0.115,1.701,0.251
			c0.094,0.026,0.13,0.096,0.107,0.194l-0.102,0.532c-0.02,0.103-0.09,0.139-0.193,0.115c-0.506-0.134-0.912-0.193-1.359-0.193
			c-1.245,0-1.984,0.508-1.98,1.54c-0.004,1.313,1.063,2.05,2.208,3.024c1.293,1.119,1.805,1.777,1.811,3
			c-0.006,1.706-1.026,2.739-3.058,2.739C404.859,385.276,404.185,385.148,403.601,385.004z"/>
		<path fill="#9A9A9A" d="M410.565,383.357v-8.15c0-0.032-0.021-0.052-0.054-0.052h-0.745c-0.103,0-0.158-0.054-0.158-0.159v-0.556
			c0-0.104,0.056-0.161,0.158-0.161h0.745c0.033,0,0.054-0.02,0.054-0.052v-1.645c0-0.104,0.055-0.16,0.158-0.16h0.747
			c0.104,0,0.161,0.057,0.161,0.16v1.645c0,0.032,0.018,0.052,0.051,0.052h1.394c0.103,0,0.159,0.057,0.159,0.161v0.556
			c0,0.105-0.057,0.159-0.159,0.159h-1.394c-0.033,0-0.051,0.02-0.051,0.052v7.877c0,1.028,0.424,1.398,1.379,1.188
			c0.087-0.015,0.125,0.032,0.133,0.139l0.031,0.55c0.008,0.093-0.026,0.16-0.122,0.186c-0.218,0.055-0.497,0.109-0.79,0.109
			C411.173,385.256,410.565,384.706,410.565,383.357z"/>
		<path fill="#9A9A9A" d="M418.753,374.166c0.096,0.016,0.141,0.08,0.133,0.179l-0.066,0.854c-0.009,0.108-0.078,0.147-0.184,0.12
			c-0.249-0.054-0.517-0.071-0.667-0.071c-1.186,0-2.026,1.448-2.026,2.997v6.674c0,0.104-0.057,0.158-0.16,0.158h-0.794
			c-0.104,0-0.162-0.055-0.162-0.158v-10.556c0-0.103,0.058-0.159,0.162-0.159h0.707c0.1,0,0.155,0.052,0.165,0.15l0.051,1.44
			c0.007,0.052,0.045,0.048,0.063,0.003c0.432-1.032,1.141-1.698,2.15-1.692C418.383,374.104,418.571,374.128,418.753,374.166z"/>
		<path fill="#9A9A9A" d="M419.358,382.381c-0.031-2.91,1.484-3.631,4.746-3.639c0.033,0,0.052-0.021,0.052-0.054l-0.006-1.828
			c-0.011-0.995-0.457-1.792-1.759-1.792c-0.627,0-1.257,0.13-1.789,0.323c-0.105,0.032-0.175-0.008-0.195-0.115l-0.107-0.593
			c-0.02-0.099,0.017-0.162,0.105-0.194c0.597-0.227,1.344-0.379,2.102-0.379c1.901,0,2.72,1.016,2.72,2.583l0.019,8.225
			c0,0.104-0.057,0.158-0.158,0.158h-0.666c-0.094,0-0.154-0.04-0.174-0.136l-0.064-1.052c-0.009-0.043-0.042-0.05-0.064-0.007
			c-0.275,0.523-1.054,1.374-2.292,1.374C420.485,385.256,419.375,384.507,419.358,382.381z M424.165,382.222l-0.008-2.655
			c0-0.032-0.023-0.051-0.053-0.051c-2.627,0.01-3.723,0.518-3.691,2.839c0.015,1.403,0.625,2.002,1.65,2.002
			C423.159,384.356,424.11,383.338,424.165,382.222z"/>
		<path fill="#9A9A9A" d="M427.655,383.357v-8.15c0-0.032-0.021-0.052-0.053-0.052h-0.746c-0.103,0-0.159-0.054-0.159-0.159v-0.556
			c0-0.104,0.057-0.161,0.159-0.161h0.746c0.032,0,0.053-0.02,0.053-0.052v-1.645c0-0.104,0.055-0.16,0.158-0.16h0.747
			c0.104,0,0.16,0.057,0.16,0.16v1.645c0,0.032,0.019,0.052,0.052,0.052h1.393c0.102,0,0.158,0.057,0.158,0.161v0.556
			c0,0.105-0.057,0.159-0.158,0.159h-1.393c-0.033,0-0.052,0.02-0.052,0.052v7.877c0,1.028,0.429,1.398,1.382,1.188
			c0.084-0.015,0.123,0.032,0.131,0.139l0.031,0.55c0.007,0.093-0.027,0.16-0.122,0.186c-0.218,0.055-0.497,0.109-0.79,0.109
			C428.263,385.256,427.655,384.706,427.655,383.357z"/>
		<path fill="#9A9A9A" d="M431.345,379.621c0-4.547,1.408-5.517,3.063-5.517c1.627,0,2.882,1.063,2.771,4.29
			c-0.013,0.59-0.049,1.052-0.09,1.322c-0.012,0.096-0.07,0.142-0.17,0.142h-4.461c-0.031,0-0.051,0.026-0.051,0.052
			c0.02,3.283,0.713,4.398,2.618,4.398c0.577,0,1.183-0.141,1.694-0.346c0.106-0.035,0.179,0.003,0.188,0.117l0.055,0.577
			c0.009,0.096-0.024,0.159-0.117,0.193c-0.521,0.215-1.141,0.385-1.963,0.385C432.763,385.235,431.345,384.269,431.345,379.621z
			 M436.129,379.063c0.03,0,0.057-0.021,0.057-0.049c0.015-0.159,0.028-0.565,0.028-0.671c0.063-2.148-0.457-3.35-1.766-3.35
			c-1.308,0-1.986,1.067-2.035,4.018c0,0.033,0.018,0.052,0.051,0.052H436.129z"/>
		<path fill="#9A9A9A" d="M439.262,387.188c-0.097-0.035-0.128-0.104-0.105-0.2l0.106-0.596c0.023-0.105,0.09-0.142,0.194-0.112
			c0.438,0.134,0.966,0.251,1.589,0.251c1.788,0,2.406-0.764,2.406-2.388l-0.005-1.236c0-0.046-0.034-0.055-0.06-0.019
			c-0.357,0.704-1.09,1.225-2.074,1.225c-1.746,0-2.916-1.091-2.916-4.816c0-3.149,0.67-5.205,2.898-5.205
			c0.987,0,1.791,0.606,2.136,1.456c0.017,0.042,0.054,0.041,0.058-0.007l0.016-1.19c0.014-0.1,0.071-0.147,0.168-0.147h0.717
			c0.104,0,0.16,0.057,0.16,0.159v9.817c0,2.517-1.42,3.315-3.442,3.315C440.415,387.495,439.767,387.356,439.262,387.188z
			 M441.452,383.182c1.643,0,1.943-1.576,1.983-3.08c0.011-0.339,0.012-0.586,0.012-0.823c0-0.349-0.005-0.697-0.017-1.034
			c-0.082-1.846-0.482-3.231-2.012-3.231c-1.5,0-1.865,1.762-1.94,3.347c-0.013,0.315-0.021,0.627-0.021,0.919
			c0,0.276,0.008,0.58,0.023,0.89C439.563,381.564,439.947,383.182,441.452,383.182L441.452,383.182z"/>
		<path fill="#9A9A9A" d="M446.538,372.265c0-0.552,0.029-0.677,0.619-0.677c0.588,0,0.619,0.125,0.619,0.677
			c0,0.573-0.031,0.694-0.619,0.694C446.567,372.959,446.538,372.838,446.538,372.265z M446.613,384.918v-10.556
			c0-0.103,0.056-0.159,0.161-0.159h0.762c0.104,0,0.16,0.057,0.16,0.159v10.556c0,0.104-0.057,0.158-0.16,0.158h-0.762
			C446.669,385.076,446.613,385.021,446.613,384.918z"/>
		<path fill="#9A9A9A" d="M449.306,382.381c-0.033-2.91,1.483-3.631,4.743-3.639c0.033,0,0.054-0.021,0.054-0.054l-0.004-1.828
			c-0.016-0.995-0.461-1.792-1.764-1.792c-0.625,0-1.254,0.13-1.787,0.323c-0.104,0.032-0.174-0.008-0.193-0.115l-0.109-0.593
			c-0.018-0.099,0.016-0.162,0.105-0.194c0.598-0.227,1.346-0.379,2.104-0.379c1.9,0,2.719,1.016,2.719,2.583l0.019,8.225
			c0,0.104-0.056,0.158-0.161,0.158h-0.663c-0.096,0-0.156-0.04-0.175-0.136l-0.064-1.052c-0.008-0.043-0.045-0.05-0.063-0.007
			c-0.277,0.523-1.057,1.374-2.295,1.374C450.432,385.256,449.319,384.507,449.306,382.381z M454.11,382.222l-0.006-2.655
			c0-0.032-0.027-0.051-0.055-0.051c-2.627,0.01-3.724,0.518-3.691,2.839c0.016,1.403,0.627,2.002,1.65,2.002
			C453.106,384.356,454.055,383.338,454.11,382.222z"/>
	</g>
	<path fill="#AAC56F" d="M293.194,336.439c-0.262,0.102-0.268,0.339-0.014,0.417c5.303,1.651,8.438,6.143,8.438,12.148
		c0,11.455-5.7,16.289-19.137,16.289h-15.678c-0.875,0-1.362-0.486-1.362-1.361v-50.771c0-0.876,0.487-1.363,1.362-1.363h15.367
		c12.466,0,17.388,5.247,17.388,13.646C299.559,330.3,296.993,334.915,293.194,336.439L293.194,336.439z M277.47,321.43
		c-0.215,0-0.369,0.097-0.369,0.343v11.507c0,0.216,0.154,0.367,0.369,0.367h4.158c4.768,0,6.857-1.84,6.857-6.255
		c0-4.32-2.424-5.963-6.781-5.963L277.47,321.43L277.47,321.43z M290.251,348.496c0-4.861-2.555-7.038-7.882-6.991l-4.899,0.037
		c-0.215,0-0.369,0.155-0.369,0.37v13.227c0,0.218,0.154,0.369,0.369,0.369h5.248C287.619,355.508,290.251,353.3,290.251,348.496"/>
	<path fill="#AAC56F" d="M307.606,338.674c0-22.542,7.35-27.303,17.289-27.303c9.532,0,16.355,4.992,16.086,20.695
		c-0.032,3.053-0.27,5.883-0.508,7.861c-0.08,0.817-0.561,1.224-1.44,1.224h-20.235c-0.227,0-0.371,0.159-0.371,0.375
		c0.098,11.904,2.725,15.659,11.632,15.659c2.483,0,5.093-0.541,7.22-1.284c0.893-0.231,1.512,0.055,1.581,1.016l0.569,5.741
		c0.068,0.816-0.207,1.357-1.01,1.638c-2.843,1.019-6.453,1.776-10.408,1.776C315.657,366.072,307.606,361.313,307.606,338.674
		 M331.063,334.195c0.223,0,0.43-0.145,0.434-0.365c0.035-0.678,0.068-2.021,0.068-2.527c0.153-7.461-1.316-11.627-6.086-11.627
		c-4.912,0-6.822,3.84-6.993,14.146c0,0.226,0.146,0.373,0.372,0.373H331.063z"/>
	<path fill="#AAC56F" d="M346.274,338.674c0-22.542,7.348-27.303,17.289-27.303c9.533,0,16.358,4.992,16.086,20.695
		c-0.031,3.053-0.268,5.883-0.507,7.861c-0.079,0.817-0.563,1.224-1.44,1.224h-20.237c-0.224,0-0.367,0.159-0.367,0.375
		c0.094,11.904,2.72,15.659,11.632,15.659c2.481,0,5.09-0.541,7.218-1.284c0.893-0.231,1.511,0.055,1.579,1.016l0.573,5.741
		c0.067,0.816-0.208,1.357-1.014,1.638c-2.841,1.019-6.449,1.776-10.406,1.776C354.325,366.072,346.274,361.313,346.274,338.674
		 M369.733,334.195c0.224,0,0.428-0.145,0.432-0.365c0.036-0.678,0.068-2.021,0.068-2.527c0.154-7.461-1.314-11.627-6.085-11.627
		c-4.91,0-6.821,3.84-6.991,14.146c0,0.226,0.145,0.373,0.37,0.373H369.733z"/>
	<path fill="#3C679B" d="M397.703,366.603c-0.726,0-1.115-0.392-1.115-1.116v-53.375c0-0.725,0.39-1.117,1.115-1.117h12.722
		c5.389,0,9.383,0.986,12.198,3.734c3.862,3.845,5.58,11.199,5.58,24.102c0,12.168-1.494,19.461-4.911,23.418
		c-2.895,3.274-7.094,4.354-12.867,4.354H397.703L397.703,366.603z M405.929,357.787c0,0.183,0.117,0.301,0.302,0.301h4.194
		c2.822,0,4.486-0.777,5.707-2.441c2.018-2.857,2.602-8.414,2.602-16.817c0-8.801-0.637-14.402-2.791-17.165
		c-1.143-1.473-2.839-2.155-5.518-2.155h-4.194c-0.185,0-0.302,0.119-0.302,0.301V357.787L405.929,357.787z"/>
	<path fill="#3C679B" d="M469.695,383.711c-7.888-3.374-12.234-12.577-15.694-29.996c-0.021-0.164-0.141-0.27-0.305-0.27h-10.721
		c-0.164,0-0.285,0.12-0.303,0.27c-0.832,4.744-1.532,8.999-1.891,11.839c-0.061,0.625-0.516,1.049-1.15,1.049h-7.291
		c-0.716,0-1.205-0.508-1.117-1.204c1.422-9.803,6.799-38.227,10.022-53.523c0.11-0.541,0.524-0.881,1.079-0.881h12.148
		c0.552,0,0.994,0.332,1.078,0.872c2.045,11.646,4.138,23.291,6.278,34.935c3.138,17.531,6.587,25.773,12.15,28.692
		c1.858,0.971,3.966,1.365,6.312,1.365c1.828,0,4.014-0.301,5.79-0.945c0.729-0.203,1.237,0.124,1.294,0.867l0.468,6.01
		c0.052,0.664-0.223,1.074-0.87,1.245c-2.699,0.838-5.636,1.334-8.388,1.334C475.2,385.369,472.284,384.828,469.695,383.711
		 M452.567,344.951c0.206,0,0.334-0.163,0.309-0.355c-1.48-8.234-3.227-17.394-4.305-23.259c-0.008-0.079-0.341-0.078-0.35,0
		c-1.079,5.863-2.848,15.021-4.357,23.254c-0.032,0.206,0.102,0.36,0.308,0.36H452.567z"/>
	<path fill="#3C679B" d="M493.284,312.111v6.248c0,0.726-0.389,1.116-1.115,1.116h-7.966c-0.185,0-0.302,0.117-0.302,0.303v45.708
		c0,0.725-0.391,1.116-1.117,1.116h-7.301c-0.727,0-1.115-0.392-1.115-1.116v-45.708c0-0.186-0.117-0.303-0.304-0.303h-7.968
		c-0.723,0-1.113-0.391-1.113-1.116v-6.248c0-0.725,0.391-1.117,1.113-1.117h26.072
		C492.896,310.994,493.284,311.387,493.284,312.111"/>
	<path fill="#3C679B" d="M493.902,366.604c-0.718,0-1.206-0.508-1.118-1.206c1.424-9.803,6.799-38.227,10.023-53.523
		c0.108-0.541,0.526-0.876,1.077-0.876h12.153c0.547,0,0.962,0.331,1.074,0.867c3.244,15.111,8.511,43.656,9.888,53.543
		c0.079,0.691-0.403,1.193-1.116,1.193h-7.305c-0.635,0-1.088-0.424-1.149-1.049c-0.358-2.843-1.048-7.095-1.866-11.839
		c-0.021-0.164-0.14-0.27-0.307-0.27h-10.719c-0.163,0-0.287,0.12-0.305,0.268c-0.833,4.744-1.531,8.998-1.891,11.841
		c-0.063,0.625-0.514,1.049-1.149,1.049h-7.29L493.902,366.604z M514.13,344.953c0.205,0,0.335-0.161,0.307-0.354
		c-1.479-8.235-3.225-17.394-4.303-23.26c-0.008-0.078-0.342-0.078-0.352,0c-1.078,5.862-2.848,15.021-4.357,23.254
		c-0.029,0.206,0.104,0.359,0.311,0.359H514.13z"/>
	<path fill="#AAC56F" d="M428.973,274.845c-4.114-4.295-9.33-6.646-15.033-8.02c-5.425-1.305-10.891-1.271-16.399-0.601
		c-4.109,0.498-5.631,0.995-6.551,0.447l-5.285,9.362l-5.285-9.362c-0.921,0.548-2.442,0.051-6.549-0.447
		c-5.512-0.671-10.977-0.704-16.402,0.601c-5.703,1.374-10.917,3.725-15.035,8.02c-3.473,3.625-2.885,7.232,1.436,9.807
		c1.395,0.831,2.904,1.38,4.473,1.771c10.686,2.655,19.252-0.805,26.199-10.746c1.158-1.656,2.023-2.257,3.815-0.828
		c0.782,0.625,0.849,1.027,0.636,1.834c-0.417,1.572-0.484,3.159,0.168,5.116c2.229-1.26,4.403-2.465,6.545-3.679
		c2.144,1.214,4.314,2.419,6.543,3.679c0.656-1.957,0.588-3.544,0.17-5.116c-0.213-0.807-0.146-1.209,0.637-1.834
		c1.793-1.429,2.656-0.828,3.813,0.828c6.948,9.941,15.515,13.401,26.198,10.746c1.572-0.391,3.078-0.939,4.477-1.771
		C431.86,282.077,432.446,278.47,428.973,274.845"/>
	<path fill="#AAC56F" d="M438.438,250.234c-8.092-2.439-16.186-1.708-24.199,0.576c-7.623,2.175-14.359,6.033-20.706,10.71
		c-4.735,3.483-6.272,5.161-7.792,5.127c-1.521,0.034-3.057-1.644-7.791-5.127c-6.348-4.677-13.083-8.535-20.707-10.71
		c-8.012-2.284-16.105-3.016-24.197-0.576c-6.826,2.057-8.622,6.928-5.072,13.13c1.144,2.002,2.625,3.734,4.295,5.313
		c11.365,10.746,24.377,12.447,39.914,5.005c2.589-1.243,4.077-1.38,5.295,1.64c0.532,1.319,0.336,1.863-0.493,2.711
		c-1.612,1.651-2.806,3.569-3.362,6.446c4.141,0,8.148,0.042,12.119,0.021c3.971,0.021,7.979-0.021,12.118-0.021
		c-0.556-2.877-1.747-4.795-3.36-6.446c-0.83-0.848-1.025-1.392-0.494-2.711c1.219-3.02,2.705-2.883,5.295-1.64
		c15.537,7.442,28.549,5.741,39.914-5.005c1.67-1.579,3.15-3.312,4.296-5.313C447.059,257.162,445.265,252.291,438.438,250.234"/>
	<path fill="#AAC56F" d="M376.276,241.481c-1.045,1.395-2.134,2.563-2.897,3.914c-2.962,5.241,0.104,10.801,6.091,11.008
		c2.088,0.073,4.18,0.073,6.271,0.062c2.092,0.012,4.186,0.012,6.271-0.062c5.985-0.207,9.052-5.767,6.091-11.008
		c-0.764-1.352-1.853-2.52-2.898-3.914c0.534-0.659,1.077-1.325,1.606-1.996c2.621-3.32,4.301-7.046,4.379-11.308
		c0.018-0.836-0.854-2.276-1.531-2.419c-1.494-0.32-1.61,1.09-1.644,2.241c-0.142,4.835-2.632,8.48-5.82,11.861
		c-0.495-0.213-0.907-0.295-1.198-0.529c-1.752-1.405-3.5-2.152-5.256-2.138c-1.755-0.015-3.504,0.732-5.254,2.138
		c-0.292,0.234-0.704,0.316-1.2,0.529c-3.188-3.381-5.68-7.026-5.819-11.861c-0.033-1.151-0.148-2.562-1.644-2.241
		c-0.679,0.143-1.548,1.583-1.532,2.419c0.08,4.262,1.76,7.987,4.379,11.308C375.201,240.156,375.743,240.822,376.276,241.481"/>
	<path fill="#AAC56F" d="M398.419,286.896h-25.308c-0.099,0.806-0.159,1.788-0.111,2.922c0,0.002,0,0.005,0,0.005h25.54
		C398.589,288.863,398.556,287.884,398.419,286.896"/>
	<path fill="#AAC56F" d="M373.903,295c0.018,0.061,0.038,0.111,0.057,0.167c0.174,0.556,0.379,1.127,0.613,1.707H396.9
		c0.469-1.157,0.908-2.484,1.22-3.914h-24.73C373.522,293.614,373.687,294.291,373.903,295"/>
	<path fill="#AAC56F" d="M376.983,301.478c2.159,3.762,4.654,6.495,7.337,9.082c0.446,0.431,0.896,0.891,1.421,0.83
		c0.523,0.061,0.975-0.399,1.42-0.83c2.686-2.587,5.178-5.32,7.338-9.082h-8.758H376.983z"/>
</g>
</svg>
